<svg width="40" height="41" viewBox="0 0 40 41" fill="none" xmlns="http://www.w3.org/2000/svg">
<circle cx="20" cy="20.9658" r="20" fill="#333333"/>
<path d="M27.2787 17.3297L20.0059 21.8752L12.7332 17.3297V15.5115L20.0059 20.057L27.2787 15.5115V17.3297ZM27.2787 13.6934H12.7332C11.7241 13.6934 10.915 14.5025 10.915 15.5115V26.4206C10.915 26.9028 11.1066 27.3653 11.4476 27.7063C11.7885 28.0473 12.251 28.2388 12.7332 28.2388H27.2787C27.7609 28.2388 28.2233 28.0473 28.5643 27.7063C28.9053 27.3653 29.0969 26.9028 29.0969 26.4206V15.5115C29.0969 15.0293 28.9053 14.5669 28.5643 14.2259C28.2233 13.8849 27.7609 13.6934 27.2787 13.6934Z" fill="white"/>
</svg>
