<svg width="40" height="41" viewBox="0 0 40 41" fill="none" xmlns="http://www.w3.org/2000/svg">
<circle cx="20" cy="20.9658" r="20" fill="#333333" fill-opacity="0.5"/>
<path d="M25.6568 23.7938L24.2428 22.3798L25.6568 20.9658C26.0282 20.5944 26.3229 20.1534 26.5239 19.6681C26.7249 19.1828 26.8284 18.6626 26.8284 18.1373C26.8284 17.612 26.7249 17.0919 26.5239 16.6066C26.3229 16.1212 26.0282 15.6803 25.6568 15.3088C25.2853 14.9374 24.8444 14.6427 24.359 14.4417C23.8737 14.2407 23.3536 14.1372 22.8283 14.1372C22.303 14.1372 21.7828 14.2407 21.2975 14.4417C20.8122 14.6427 20.3712 14.9374 19.9998 15.3088L18.5858 16.7228L17.1718 15.3088L18.5858 13.8948C19.7141 12.7847 21.2353 12.1655 22.8181 12.1719C24.401 12.1784 25.9171 12.81 27.0364 13.9292C28.1556 15.0485 28.7872 16.5646 28.7937 18.1474C28.8001 19.7303 28.1808 21.2515 27.0708 22.3798L25.6568 23.7938ZM22.8278 26.6228L21.4138 28.0368C20.8583 28.6014 20.1965 29.0505 19.4666 29.358C18.7367 29.6656 17.9532 29.8256 17.1611 29.8288C16.3691 29.8321 15.5843 29.6784 14.8519 29.3768C14.1195 29.0752 13.4541 28.6316 12.8941 28.0715C12.334 27.5115 11.8904 26.8461 11.5888 26.1137C11.2872 25.3813 11.1335 24.5965 11.1368 23.8044C11.14 23.0124 11.3 22.2288 11.6076 21.499C11.9151 20.7691 12.3642 20.1073 12.9288 19.5518L14.3428 18.1378L15.7568 19.5518L14.3428 20.9658C13.9713 21.3373 13.6767 21.7782 13.4757 22.2636C13.2746 22.7489 13.1712 23.269 13.1712 23.7943C13.1712 24.3196 13.2746 24.8398 13.4757 25.3251C13.6767 25.8104 13.9713 26.2514 14.3428 26.6228C14.7142 26.9943 15.1552 27.2889 15.6405 27.4899C16.1258 27.691 16.646 27.7944 17.1713 27.7944C17.6966 27.7944 18.2167 27.691 18.702 27.4899C19.1874 27.2889 19.6283 26.9943 19.9998 26.6228L21.4138 25.2088L22.8278 26.6228ZM22.8278 16.7228L24.2428 18.1378L17.1718 25.2078L15.7568 23.7938L22.8278 16.7238V16.7228Z" fill="white"/>
</svg>
