<svg width="40" height="41" viewBox="0 0 40 41" fill="none" xmlns="http://www.w3.org/2000/svg">
<circle cx="20" cy="20.9658" r="20" fill="#55ACEE"/>
<path d="M30.2197 15.0097C29.4708 15.3596 28.6764 15.5893 27.863 15.6911C28.7103 15.1555 29.3608 14.3074 29.6671 13.2968C28.8617 13.8009 27.9805 14.1561 27.0616 14.347C26.3131 13.506 25.2468 12.9803 24.0665 12.9803C21.8004 12.9803 19.9632 14.9181 19.9632 17.308C19.9632 17.6472 19.9995 17.9775 20.0694 18.2943C16.6593 18.1137 13.6358 16.3909 11.612 13.7725C11.2589 14.4117 11.0565 15.1552 11.0565 15.9482C11.0565 17.4497 11.781 18.7743 12.8819 19.5504C12.2303 19.5289 11.593 19.3432 11.0233 19.009C11.0231 19.0271 11.0231 19.0453 11.0231 19.0635C11.0231 21.1603 12.4375 22.9095 14.3145 23.307C13.7103 23.4804 13.0765 23.5057 12.4615 23.3812C12.9836 25.1006 14.499 26.3517 16.2945 26.3867C14.8902 27.5474 13.1209 28.2393 11.1986 28.2393C10.8673 28.2393 10.5407 28.2188 10.2197 28.1788C12.0356 29.4067 14.1924 30.1232 16.5096 30.1232C24.057 30.1232 28.1841 23.5287 28.1841 17.8099C28.1841 17.6222 28.1802 17.4355 28.1722 17.25C28.9755 16.6375 29.6689 15.8788 30.2197 15.0097Z" fill="white"/>
</svg>
