<svg width="40" height="41" viewBox="0 0 40 41" fill="none" xmlns="http://www.w3.org/2000/svg">
<circle cx="20" cy="20.9658" r="20" fill="#4ECB5B"/>
<g clip-path="url(#clip0_460_2670)">
<path d="M9.44876 21.0982C9.44823 22.9999 9.94513 24.8567 10.89 26.4934L9.3584 32.0854L15.0811 30.5849C16.6639 31.4466 18.4374 31.8981 20.2395 31.8982H20.2443C26.1936 31.8982 31.0364 27.0571 31.039 21.1067C31.0401 18.2233 29.9183 15.512 27.88 13.4721C25.842 11.4325 23.1317 10.3086 20.2438 10.3073C14.2938 10.3073 9.4513 15.1481 9.44885 21.0982" fill="url(#paint0_linear_460_2670)"/>
<path d="M9.0636 21.0946C9.06298 23.0647 9.57768 24.988 10.5562 26.6833L8.96973 32.4757L14.8976 30.9214C16.531 31.812 18.3699 32.2815 20.2412 32.2822H20.246C26.4087 32.2822 31.4256 27.2669 31.4282 21.1036C31.4293 18.1166 30.267 15.3078 28.1559 13.1949C26.0446 11.0822 23.2373 9.91785 20.246 9.91663C14.0822 9.91663 9.06614 14.9312 9.06368 21.0946H9.0636ZM12.5938 26.3913L12.3724 26.04C11.442 24.5605 10.9509 22.8509 10.9516 21.0953C10.9536 15.9724 15.1228 11.8045 20.2495 11.8045C22.7322 11.8056 25.0654 12.7734 26.8204 14.5294C28.5752 16.2855 29.5408 18.62 29.5402 21.1029C29.5379 26.2258 25.3686 30.3942 20.246 30.3942H20.2423C18.5743 30.3933 16.9384 29.9454 15.5118 29.0989L15.1723 28.8975L11.6546 29.8198L12.5938 26.3912V26.3913Z" fill="url(#paint1_linear_460_2670)"/>
<path d="M17.4516 16.4215C17.2423 15.9563 17.022 15.9469 16.8229 15.9388C16.6599 15.9317 16.4736 15.9323 16.2874 15.9323C16.1011 15.9323 15.7984 16.0024 15.5424 16.2818C15.2863 16.5614 14.5645 17.2373 14.5645 18.6119C14.5645 19.9866 15.5657 21.3151 15.7053 21.5017C15.845 21.6879 17.6382 24.5991 20.4781 25.7191C22.8384 26.6498 23.3187 26.4647 23.8309 26.418C24.3433 26.3715 25.4841 25.7423 25.7168 25.0899C25.9498 24.4375 25.9498 23.8783 25.8799 23.7615C25.8101 23.6451 25.6238 23.5752 25.3443 23.4355C25.0648 23.2957 23.6912 22.6198 23.4351 22.5265C23.1789 22.4334 22.9927 22.3869 22.8064 22.6666C22.62 22.946 22.085 23.5752 21.9219 23.7615C21.759 23.9483 21.5959 23.9715 21.3166 23.8318C21.037 23.6916 20.1371 23.3969 19.0696 22.4451C18.239 21.7045 17.6782 20.79 17.5152 20.5102C17.3522 20.2309 17.4977 20.0794 17.6378 19.9402C17.7634 19.815 17.9173 19.614 18.0572 19.4509C18.1965 19.2877 18.243 19.1713 18.3362 18.9849C18.4294 18.7984 18.3827 18.6353 18.313 18.4955C18.243 18.3558 17.7 16.974 17.4516 16.4216" fill="white"/>
</g>
<defs>
<linearGradient id="paint0_linear_460_2670" x1="20.1987" y1="32.0854" x2="20.1987" y2="10.3073" gradientUnits="userSpaceOnUse">
<stop stop-color="#1FAF38"/>
<stop offset="1" stop-color="#60D669"/>
</linearGradient>
<linearGradient id="paint1_linear_460_2670" x1="20.199" y1="32.4757" x2="20.199" y2="9.91663" gradientUnits="userSpaceOnUse">
<stop stop-color="#F9F9F9"/>
<stop offset="1" stop-color="white"/>
</linearGradient>
<clipPath id="clip0_460_2670">
<rect width="22.4585" height="22.6339" fill="white" transform="translate(8.96973 9.91663)"/>
</clipPath>
</defs>
</svg>
