<svg width="56" height="56" viewBox="0 0 56 56" fill="none" xmlns="http://www.w3.org/2000/svg">
<circle cx="28" cy="28" r="28" fill="#81C216" fill-opacity="0.1"/>
<path d="M12 28.0001C11.9992 25.5797 12.5476 23.1906 13.6038 21.0128C14.66 18.8351 16.1965 16.9253 18.0977 15.4273C19.9988 13.9293 22.215 12.8822 24.5795 12.3648C26.9439 11.8473 29.3949 11.8731 31.748 12.4401C31.9226 12.4815 32.0828 12.5691 32.2118 12.6938C32.3408 12.8184 32.434 12.9755 32.4814 13.1485C32.5289 13.3216 32.5289 13.5042 32.4815 13.6772C32.4341 13.8503 32.341 14.0074 32.212 14.1321C31.6955 14.6346 31.3243 15.2673 31.1376 15.9634C30.9509 16.6594 30.9556 17.393 31.1513 18.0866C31.3469 18.7802 31.7262 19.4081 32.249 19.904C32.7719 20.3999 33.419 20.7454 34.122 20.9041C34.371 20.9599 34.5937 21.0989 34.7532 21.2981C34.9128 21.4973 34.9998 21.7448 35 22.0001C34.9998 22.8134 35.2475 23.6075 35.7102 24.2764C36.1728 24.9454 36.8284 25.4574 37.5895 25.7442C38.3506 26.031 39.1811 26.079 39.9702 25.8817C40.7592 25.6844 41.4694 25.2513 42.006 24.64C42.1299 24.4986 42.2913 24.3949 42.4714 24.341C42.6516 24.2871 42.8434 24.2851 43.0246 24.3352C43.2059 24.3853 43.3694 24.4856 43.4963 24.6244C43.6232 24.7632 43.7083 24.935 43.742 25.1201C44.1393 27.3057 44.0771 29.5502 43.5594 31.7105C43.0417 33.8708 42.0798 35.8997 40.7349 37.6678C39.3901 39.436 37.6918 40.9047 35.7481 41.9805C33.8045 43.0563 31.6582 43.7155 29.4458 43.9163C27.2334 44.117 25.0034 43.8548 22.8979 43.1464C20.7924 42.438 18.8574 41.2989 17.2163 39.8017C15.5752 38.3045 14.2638 36.4819 13.3657 34.45C12.4677 32.4182 12.0025 30.2215 12 28.0001ZM22 24.0001C22 23.4696 21.7893 22.9609 21.4142 22.5858C21.0391 22.2108 20.5304 22.0001 20 22.0001C19.4696 22.0001 18.9609 22.2108 18.5858 22.5858C18.2107 22.9609 18 23.4696 18 24.0001C18 24.5305 18.2107 25.0392 18.5858 25.4143C18.9609 25.7893 19.4696 26.0001 20 26.0001C20.5304 26.0001 21.0391 25.7893 21.4142 25.4143C21.7893 25.0392 22 24.5305 22 24.0001ZM28 30.0001C28.5304 30.0001 29.0391 29.7893 29.4142 29.4143C29.7893 29.0392 30 28.5305 30 28.0001C30 27.4696 29.7893 26.9609 29.4142 26.5858C29.0391 26.2108 28.5304 26.0001 28 26.0001C27.4696 26.0001 26.9609 26.2108 26.5858 26.5858C26.2107 26.9609 26 27.4696 26 28.0001C26 28.5305 26.2107 29.0392 26.5858 29.4143C26.9609 29.7893 27.4696 30.0001 28 30.0001ZM34 36.0001C34 35.4696 33.7893 34.9609 33.4142 34.5858C33.0391 34.2108 32.5304 34.0001 32 34.0001C31.4696 34.0001 30.9609 34.2108 30.5858 34.5858C30.2107 34.9609 30 35.4696 30 36.0001C30 36.5305 30.2107 37.0392 30.5858 37.4143C30.9609 37.7893 31.4696 38.0001 32 38.0001C32.5304 38.0001 33.0391 37.7893 33.4142 37.4143C33.7893 37.0392 34 36.5305 34 36.0001ZM22 36.0001C22.5304 36.0001 23.0391 35.7893 23.4142 35.4143C23.7893 35.0392 24 34.5305 24 34.0001C24 33.4696 23.7893 32.9609 23.4142 32.5858C23.0391 32.2108 22.5304 32.0001 22 32.0001C21.4696 32.0001 20.9609 32.2108 20.5858 32.5858C20.2107 32.9609 20 33.4696 20 34.0001C20 34.5305 20.2107 35.0392 20.5858 35.4143C20.9609 35.7893 21.4696 36.0001 22 36.0001Z" fill="#81C216"/>
<path d="M37.0661 16.6957C38.1975 16.6957 39.1146 15.7785 39.1146 14.6472C39.1146 13.5158 38.1975 12.5986 37.0661 12.5986C35.9347 12.5986 35.0176 13.5158 35.0176 14.6472C35.0176 15.7785 35.9347 16.6957 37.0661 16.6957Z" fill="#81C216"/>
<path d="M39.2883 22.6074C40.1369 22.6074 40.8247 21.9196 40.8247 21.0711C40.8247 20.2225 40.1369 19.5347 39.2883 19.5347C38.4398 19.5347 37.752 20.2225 37.752 21.0711C37.752 21.9196 38.4398 22.6074 39.2883 22.6074Z" fill="#81C216"/>
</svg>
