<svg width="30" height="31" viewBox="0 0 30 31" fill="none" xmlns="http://www.w3.org/2000/svg">
<g opacity="0.1">
<ellipse cx="15" cy="15.5612" rx="15" ry="14.9802" fill="#333333" fill-opacity="0.8"/>
<path d="M29.5 15.5612C29.5 23.5578 23.0088 30.0414 15 30.0414C6.99125 30.0414 0.5 23.5578 0.5 15.5612C0.5 7.56468 6.99125 1.08105 15 1.08105C23.0088 1.08105 29.5 7.56468 29.5 15.5612Z" stroke="#333333" stroke-opacity="0.8"/>
</g>
<path d="M15.9979 20.5546V15.6276H17.9723L18.2658 13.6985H15.9979V12.4697C15.9979 11.9131 16.1821 11.5319 17.1311 11.5319H18.3337V9.81203C17.7488 9.75913 17.1604 9.73388 16.572 9.73569C14.8268 9.73569 13.6286 10.6326 13.6286 12.2792V13.6949H11.667V15.624H13.6329V20.5546H15.9979Z" fill="#333333" fill-opacity="0.8"/>
</svg>
