<svg width="30" height="31" viewBox="0 0 30 31" fill="none" xmlns="http://www.w3.org/2000/svg">
<g opacity="0.1">
<ellipse cx="15" cy="15.5612" rx="15" ry="14.9802" fill="#333333" fill-opacity="0.8"/>
<path d="M29.5 15.5612C29.5 23.5578 23.0088 30.0414 15 30.0414C6.99125 30.0414 0.5 23.5578 0.5 15.5612C0.5 7.56468 6.99125 1.08105 15 1.08105C23.0088 1.08105 29.5 7.56468 29.5 15.5612Z" stroke="#333333" stroke-opacity="0.8"/>
</g>
<path d="M20.6188 13.1072C20.5919 12.4979 20.4933 12.079 20.3519 11.716C20.2061 11.3307 19.9818 10.9857 19.6879 10.6989C19.4007 10.4077 19.053 10.1814 18.6717 10.038C18.3061 9.89688 17.8888 9.79834 17.2787 9.77148C16.6639 9.74233 16.4688 9.7356 14.9097 9.7356C13.3507 9.7356 13.1555 9.74233 12.5431 9.7692C11.9329 9.79607 11.5135 9.89469 11.1501 10.0358C10.7642 10.1814 10.4187 10.4054 10.1316 10.6989C9.83997 10.9857 9.61345 11.3329 9.46983 11.7138C9.32849 12.079 9.22982 12.4956 9.20292 13.105C9.17374 13.7189 9.16699 13.9137 9.16699 15.4708C9.16699 17.0278 9.17374 17.2226 9.20064 17.8343C9.22754 18.4436 9.3263 18.8625 9.46764 19.2255C9.61345 19.6108 9.83997 19.9558 10.1316 20.2426C10.4187 20.5338 10.7665 20.7601 11.1478 20.9035C11.5135 21.0446 11.9307 21.1432 12.5409 21.17C13.1532 21.197 13.3485 21.2036 14.9075 21.2036C16.4666 21.2036 16.6618 21.197 17.2742 21.17C17.8843 21.1432 18.3038 21.0446 18.6672 20.9035C19.4389 20.6055 20.0491 19.9962 20.3474 19.2255C20.4887 18.8603 20.5875 18.4436 20.6144 17.8343C20.6413 17.2226 20.648 17.0278 20.648 15.4708C20.648 13.9137 20.6457 13.7189 20.6188 13.1072ZM19.5847 17.7895C19.56 18.3495 19.4658 18.652 19.3873 18.8536C19.1944 19.3532 18.7973 19.7497 18.2971 19.9424C18.0952 20.0208 17.7901 20.1149 17.2315 20.1395C16.6258 20.1664 16.4442 20.1731 14.912 20.1731C13.3799 20.1731 13.1959 20.1664 12.5924 20.1395C12.0316 20.1149 11.7288 20.0208 11.5269 19.9424C11.2779 19.8505 11.0513 19.7049 10.8674 19.5145C10.6767 19.3285 10.5309 19.1045 10.4389 18.8559C10.3604 18.6542 10.2662 18.3495 10.2416 17.7917C10.2146 17.1869 10.2079 17.0054 10.2079 15.4752C10.2079 13.9451 10.2146 13.7614 10.2416 13.1588C10.2662 12.5987 10.3604 12.2963 10.4389 12.0946C10.5309 11.8459 10.6767 11.6197 10.8697 11.4359C11.0558 11.2455 11.2801 11.0999 11.5292 11.0081C11.7311 10.9297 12.0362 10.8356 12.5947 10.8109C13.2004 10.7841 13.3821 10.7773 14.9142 10.7773C16.4486 10.7773 16.6303 10.7841 17.2338 10.8109C17.7946 10.8356 18.0974 10.9297 18.2993 11.0081C18.5483 11.0999 18.7749 11.2455 18.9588 11.4359C19.1495 11.6219 19.2953 11.8459 19.3873 12.0946C19.4658 12.2963 19.56 12.6009 19.5847 13.1588C19.6116 13.7637 19.6184 13.9451 19.6184 15.4752C19.6184 17.0054 19.6116 17.1846 19.5847 17.7895Z" fill="#333333" fill-opacity="0.8"/>
<path d="M14.9089 12.5249C13.2803 12.5249 11.959 13.8444 11.959 15.4709C11.959 17.0974 13.2803 18.4169 14.9089 18.4169C16.5375 18.4169 17.8588 17.0974 17.8588 15.4709C17.8588 13.8444 16.5375 12.5249 14.9089 12.5249ZM14.9089 17.3819C13.8523 17.3819 12.9954 16.5261 12.9954 15.4709C12.9954 14.4157 13.8523 13.5599 14.9089 13.5599C15.9655 13.5599 16.8224 14.4157 16.8224 15.4709C16.8224 16.5261 15.9655 17.3819 14.9089 17.3819Z" fill="#333333" fill-opacity="0.8"/>
<path d="M18.6643 12.4078C18.6643 12.7876 18.356 13.0955 17.9756 13.0955C17.5954 13.0955 17.2871 12.7876 17.2871 12.4078C17.2871 12.028 17.5954 11.7202 17.9756 11.7202C18.356 11.7202 18.6643 12.028 18.6643 12.4078Z" fill="#333333" fill-opacity="0.8"/>
</svg>
