<svg width="30" height="31" viewBox="0 0 30 31" fill="none" xmlns="http://www.w3.org/2000/svg">
<g opacity="0.1">
<ellipse cx="15" cy="15.5612" rx="15" ry="14.9802" fill="#333333" fill-opacity="0.8"/>
<path d="M29.5 15.5612C29.5 23.5578 23.0088 30.0414 15 30.0414C6.99125 30.0414 0.5 23.5578 0.5 15.5612C0.5 7.56468 6.99125 1.08105 15 1.08105C23.0088 1.08105 29.5 7.56468 29.5 15.5612Z" stroke="#333333" stroke-opacity="0.8"/>
</g>
<path fill-rule="evenodd" clip-rule="evenodd" d="M9.64648 21.2371H12.1797V13.9407H9.64648V21.2371Z" fill="#333333" fill-opacity="0.8"/>
<path fill-rule="evenodd" clip-rule="evenodd" d="M15.7361 17.1791C15.7361 16.3424 16.1325 15.5242 17.0804 15.5242C18.0282 15.5242 18.2613 16.3424 18.2613 17.1591V21.1441H20.7832V16.9962C20.7832 14.1145 19.0775 13.6177 18.0282 13.6177C16.9798 13.6177 16.4016 13.9718 15.7361 14.83V13.8477H13.207V21.1441H15.7361V17.1791Z" fill="#333333" fill-opacity="0.8"/>
<path fill-rule="evenodd" clip-rule="evenodd" d="M10.7358 12.9604C11.5156 12.9604 12.1477 12.3847 12.1477 11.6738C12.1477 10.9622 11.5156 10.3857 10.7358 10.3857C9.95535 10.3857 9.32324 10.9622 9.32324 11.6738C9.32324 12.3847 9.95535 12.9604 10.7358 12.9604Z" fill="#333333" fill-opacity="0.8"/>
</svg>
