<svg width="226" height="90" viewBox="0 0 226 90" fill="none" xmlns="http://www.w3.org/2000/svg">
<path d="M1.88965 79.9978H3.70091L5.44495 83.305H5.51964L7.26368 79.9978H9.07494L6.28522 84.9624V87.6772H4.67936V84.9624L1.88965 79.9978Z" fill="#58595B"/>
<path d="M11.3185 87.7897C10.7384 87.7897 10.2367 87.6659 9.81345 87.4184C9.39269 87.1685 9.06778 86.821 8.83873 86.376C8.60968 85.9286 8.49515 85.4099 8.49515 84.8199C8.49515 84.2249 8.60968 83.705 8.83873 83.26C9.06778 82.8126 9.39269 82.4651 9.81345 82.2176C10.2367 81.9676 10.7384 81.8426 11.3185 81.8426C11.8986 81.8426 12.399 81.9676 12.8198 82.2176C13.243 82.4651 13.5692 82.8126 13.7982 83.26C14.0273 83.705 14.1418 84.2249 14.1418 84.8199C14.1418 85.4099 14.0273 85.9286 13.7982 86.376C13.5692 86.821 13.243 87.1685 12.8198 87.4184C12.399 87.6659 11.8986 87.7897 11.3185 87.7897ZM11.3259 86.5523C11.5899 86.5523 11.8102 86.4773 11.987 86.3273C12.1637 86.1748 12.2969 85.9673 12.3866 85.7048C12.4787 85.4423 12.5247 85.1436 12.5247 84.8087C12.5247 84.4737 12.4787 84.175 12.3866 83.9125C12.2969 83.65 12.1637 83.4425 11.987 83.29C11.8102 83.1375 11.5899 83.0613 11.3259 83.0613C11.0595 83.0613 10.8355 83.1375 10.6537 83.29C10.4745 83.4425 10.3388 83.65 10.2467 83.9125C10.157 84.175 10.1122 84.4737 10.1122 84.8087C10.1122 85.1436 10.157 85.4423 10.2467 85.7048C10.3388 85.9673 10.4745 86.1748 10.6537 86.3273C10.8355 86.4773 11.0595 86.5523 11.3259 86.5523Z" fill="#58595B"/>
<path d="M18.8548 85.2249V81.9176H20.4457V87.6772H18.9183V86.631H18.8586C18.7291 86.9685 18.5137 87.2397 18.2125 87.4447C17.9137 87.6497 17.549 87.7522 17.1182 87.7522C16.7348 87.7522 16.3975 87.6647 16.1062 87.4897C15.8149 87.3147 15.5871 87.066 15.4228 86.7435C15.2609 86.421 15.1788 86.0348 15.1763 85.5848V81.9176H16.7672V85.2999C16.7697 85.6398 16.8606 85.9086 17.0398 86.106C17.2191 86.3035 17.4593 86.4023 17.7606 86.4023C17.9523 86.4023 18.1316 86.3585 18.2984 86.271C18.4652 86.181 18.5996 86.0485 18.7017 85.8736C18.8063 85.6986 18.8573 85.4823 18.8548 85.2249Z" fill="#58595B"/>
<path d="M21.7183 87.6772V81.9176H23.2607V82.9226H23.3204C23.425 82.5651 23.6005 82.2951 23.847 82.1126C24.0935 81.9276 24.3773 81.8351 24.6985 81.8351C24.7781 81.8351 24.864 81.8401 24.9562 81.8501C25.0483 81.8601 25.1292 81.8739 25.1989 81.8914V83.3088C25.1242 83.2863 25.0209 83.2663 24.8889 83.2488C24.757 83.2313 24.6362 83.2225 24.5267 83.2225C24.2926 83.2225 24.0835 83.2738 23.8993 83.3763C23.7175 83.4763 23.5731 83.6162 23.4661 83.7962C23.3615 83.9762 23.3092 84.1837 23.3092 84.4187V87.6772H21.7183Z" fill="#58595B"/>
<path d="M29.8671 79.9978L31.7157 85.8323H31.7867L33.639 79.9978H35.4316L32.795 87.6772H30.7111L28.0708 79.9978H29.8671Z" fill="#58595B"/>
<path d="M36.3223 87.6772V81.9176H37.9132V87.6772H36.3223ZM37.1215 81.1752C36.885 81.1752 36.682 81.0965 36.5127 80.939C36.3459 80.779 36.2625 80.5877 36.2625 80.3653C36.2625 80.1453 36.3459 79.9565 36.5127 79.7991C36.682 79.6391 36.885 79.5591 37.1215 79.5591C37.358 79.5591 37.5597 79.6391 37.7265 79.7991C37.8958 79.9565 37.9804 80.1453 37.9804 80.3653C37.9804 80.5877 37.8958 80.779 37.7265 80.939C37.5597 81.0965 37.358 81.1752 37.1215 81.1752Z" fill="#58595B"/>
<path d="M43.9604 83.56L42.5039 83.65C42.479 83.525 42.4255 83.4125 42.3433 83.3125C42.2612 83.21 42.1529 83.1288 42.0184 83.0688C41.8865 83.0063 41.7284 82.9751 41.5441 82.9751C41.2977 82.9751 41.0898 83.0275 40.9205 83.1325C40.7512 83.235 40.6665 83.3725 40.6665 83.545C40.6665 83.6825 40.7213 83.7987 40.8308 83.8937C40.9404 83.9887 41.1284 84.065 41.3948 84.1225L42.433 84.3324C42.9907 84.4474 43.4064 84.6324 43.6803 84.8874C43.9542 85.1424 44.0911 85.4773 44.0911 85.8923C44.0911 86.2698 43.9803 86.601 43.7587 86.886C43.5396 87.171 43.2384 87.3934 42.855 87.5534C42.474 87.7109 42.0346 87.7897 41.5367 87.7897C40.7773 87.7897 40.1723 87.6309 39.7217 87.3134C39.2735 86.9935 39.0109 86.5585 38.9337 86.0086L40.4985 85.9261C40.5458 86.1585 40.6603 86.336 40.842 86.4585C41.0238 86.5785 41.2566 86.6385 41.5404 86.6385C41.8192 86.6385 42.0433 86.5848 42.2126 86.4773C42.3844 86.3673 42.4715 86.226 42.474 86.0535C42.4715 85.9086 42.4106 85.7898 42.291 85.6973C42.1715 85.6023 41.9873 85.5298 41.7383 85.4798L40.7449 85.2811C40.1848 85.1686 39.7677 84.9736 39.4939 84.6962C39.2225 84.4187 39.0868 84.065 39.0868 83.635C39.0868 83.265 39.1864 82.9463 39.3856 82.6788C39.5872 82.4113 39.8698 82.2051 40.2333 82.0601C40.5993 81.9151 41.0275 81.8426 41.518 81.8426C42.2425 81.8426 42.8126 81.9964 43.2284 82.3039C43.6467 82.6113 43.8907 83.03 43.9604 83.56Z" fill="#58595B"/>
<path d="M45.0929 87.6772V81.9176H46.6838V87.6772H45.0929ZM45.8921 81.1752C45.6556 81.1752 45.4527 81.0965 45.2834 80.939C45.1166 80.779 45.0331 80.5877 45.0331 80.3653C45.0331 80.1453 45.1166 79.9565 45.2834 79.7991C45.4527 79.6391 45.6556 79.5591 45.8921 79.5591C46.1286 79.5591 46.3303 79.6391 46.4971 79.7991C46.6664 79.9565 46.751 80.1453 46.751 80.3653C46.751 80.5877 46.6664 80.779 46.4971 80.939C46.3303 81.0965 46.1286 81.1752 45.8921 81.1752Z" fill="#58595B"/>
<path d="M50.55 87.7897C49.9699 87.7897 49.4682 87.6659 49.045 87.4184C48.6242 87.1685 48.2993 86.821 48.0703 86.376C47.8412 85.9286 47.7267 85.4099 47.7267 84.8199C47.7267 84.2249 47.8412 83.705 48.0703 83.26C48.2993 82.8126 48.6242 82.4651 49.045 82.2176C49.4682 81.9676 49.9699 81.8426 50.55 81.8426C51.1301 81.8426 51.6306 81.9676 52.0513 82.2176C52.4746 82.4651 52.8007 82.8126 53.0298 83.26C53.2588 83.705 53.3734 84.2249 53.3734 84.8199C53.3734 85.4099 53.2588 85.9286 53.0298 86.376C52.8007 86.821 52.4746 87.1685 52.0513 87.4184C51.6306 87.6659 51.1301 87.7897 50.55 87.7897ZM50.5575 86.5523C50.8214 86.5523 51.0417 86.4773 51.2185 86.3273C51.3953 86.1748 51.5285 85.9673 51.6181 85.7048C51.7102 85.4423 51.7563 85.1436 51.7563 84.8087C51.7563 84.4737 51.7102 84.175 51.6181 83.9125C51.5285 83.65 51.3953 83.4425 51.2185 83.29C51.0417 83.1375 50.8214 83.0613 50.5575 83.0613C50.2911 83.0613 50.067 83.1375 49.8853 83.29C49.706 83.4425 49.5703 83.65 49.4782 83.9125C49.3886 84.175 49.3438 84.4737 49.3438 84.8087C49.3438 85.1436 49.3886 85.4423 49.4782 85.7048C49.5703 85.9673 49.706 86.1748 49.8853 86.3273C50.067 86.4773 50.2911 86.5523 50.5575 86.5523Z" fill="#58595B"/>
<path d="M55.9987 84.3474V87.6772H54.4078V81.9176H55.9241V82.9338H55.9913C56.1183 82.5988 56.3311 82.3339 56.6299 82.1389C56.9286 81.9414 57.2909 81.8426 57.7166 81.8426C58.115 81.8426 58.4623 81.9301 58.7586 82.1051C59.0549 82.2801 59.2852 82.5301 59.4495 82.8551C59.6138 83.1775 59.696 83.5625 59.696 84.01V87.6772H58.105V84.2949C58.1075 83.9425 58.0179 83.6675 57.8361 83.47C57.6544 83.27 57.4042 83.17 57.0855 83.17C56.8714 83.17 56.6822 83.2163 56.5178 83.3088C56.356 83.4013 56.229 83.5363 56.1369 83.7137C56.0473 83.8887 56.0012 84.1 55.9987 84.3474Z" fill="#58595B"/>
<path d="M62.6789 86.6273L62.6379 87.0397C62.6055 87.3697 62.5433 87.6984 62.4511 88.0259C62.3615 88.3559 62.2669 88.6546 62.1673 88.9221C62.0702 89.1895 61.9918 89.3995 61.932 89.552H60.9013C60.9386 89.4045 60.9897 89.1983 61.0544 88.9333C61.1191 88.6708 61.1801 88.3759 61.2374 88.0484C61.2947 87.7209 61.3308 87.3872 61.3457 87.0472L61.3644 86.6273H62.6789Z" fill="#58595B"/>
<path d="M73.2664 83.8375C73.2664 84.6749 73.1083 85.3874 72.7921 85.9748C72.4784 86.5623 72.0502 87.011 71.5074 87.3209C70.9672 87.6284 70.3597 87.7822 69.685 87.7822C69.0053 87.7822 68.3953 87.6272 67.855 87.3172C67.3148 87.0072 66.8878 86.5585 66.5741 85.9711C66.2604 85.3836 66.1035 84.6724 66.1035 83.8375C66.1035 83 66.2604 82.2876 66.5741 81.7002C66.8878 81.1127 67.3148 80.6652 67.855 80.3578C68.3953 80.0478 69.0053 79.8928 69.685 79.8928C70.3597 79.8928 70.9672 80.0478 71.5074 80.3578C72.0502 80.6652 72.4784 81.1127 72.7921 81.7002C73.1083 82.2876 73.2664 83 73.2664 83.8375ZM71.627 83.8375C71.627 83.295 71.546 82.8376 71.3842 82.4651C71.2249 82.0926 70.9995 81.8101 70.7082 81.6177C70.417 81.4252 70.0759 81.3289 69.685 81.3289C69.2941 81.3289 68.953 81.4252 68.6617 81.6177C68.3704 81.8101 68.1438 82.0926 67.982 82.4651C67.8227 82.8376 67.743 83.295 67.743 83.8375C67.743 84.3799 67.8227 84.8374 67.982 85.2099C68.1438 85.5823 68.3704 85.8648 68.6617 86.0573C68.953 86.2498 69.2941 86.346 69.685 86.346C70.0759 86.346 70.417 86.2498 70.7082 86.0573C70.9995 85.8648 71.2249 85.5823 71.3842 85.2099C71.546 84.8374 71.627 84.3799 71.627 83.8375Z" fill="#58595B"/>
<path d="M78.1129 85.2249V81.9176H79.7039V87.6772H78.1764V86.631H78.1167C77.9872 86.9685 77.7719 87.2397 77.4706 87.4447C77.1718 87.6497 76.8071 87.7522 76.3764 87.7522C75.993 87.7522 75.6556 87.6647 75.3643 87.4897C75.073 87.3147 74.8452 87.066 74.6809 86.7435C74.5191 86.421 74.4369 86.0348 74.4344 85.5848V81.9176H76.0253V85.2999C76.0278 85.6398 76.1187 85.9086 76.298 86.106C76.4772 86.3035 76.7175 86.4023 77.0187 86.4023C77.2104 86.4023 77.3897 86.3585 77.5565 86.271C77.7233 86.181 77.8577 86.0485 77.9598 85.8736C78.0644 85.6986 78.1154 85.4823 78.1129 85.2249Z" fill="#58595B"/>
<path d="M80.9764 87.6772V81.9176H82.5188V82.9226H82.5785C82.6831 82.5651 82.8586 82.2951 83.1051 82.1126C83.3516 81.9276 83.6354 81.8351 83.9566 81.8351C84.0363 81.8351 84.1222 81.8401 84.2143 81.8501C84.3064 81.8601 84.3873 81.8739 84.457 81.8914V83.3088C84.3823 83.2863 84.279 83.2663 84.1471 83.2488C84.0151 83.2313 83.8944 83.2225 83.7848 83.2225C83.5508 83.2225 83.3416 83.2738 83.1574 83.3763C82.9757 83.4763 82.8312 83.6162 82.7242 83.7962C82.6196 83.9762 82.5673 84.1837 82.5673 84.4187V87.6772H80.9764Z" fill="#58595B"/>
<path d="M91.8925 82.2064C91.8627 81.9039 91.7344 81.6689 91.5079 81.5014C91.2813 81.3339 90.9738 81.2502 90.5854 81.2502C90.3215 81.2502 90.0987 81.2877 89.9169 81.3627C89.7352 81.4352 89.5958 81.5364 89.4987 81.6664C89.4041 81.7964 89.3568 81.9439 89.3568 82.1089C89.3518 82.2464 89.3804 82.3664 89.4427 82.4688C89.5074 82.5713 89.5958 82.6601 89.7078 82.7351C89.8199 82.8076 89.9493 82.8713 90.0962 82.9263C90.2431 82.9788 90.4 83.0238 90.5668 83.0613L91.2539 83.2263C91.5875 83.3013 91.8938 83.4013 92.1726 83.5263C92.4515 83.6512 92.693 83.805 92.8971 83.9875C93.1013 84.17 93.2594 84.3849 93.3714 84.6324C93.4859 84.8799 93.5445 85.1636 93.5469 85.4836C93.5445 85.9536 93.4249 86.361 93.1884 86.706C92.9544 87.0485 92.6158 87.3147 92.1726 87.5047C91.7319 87.6922 91.2004 87.7859 90.578 87.7859C89.9605 87.7859 89.4228 87.6909 88.9646 87.5009C88.509 87.3109 88.153 87.0297 87.8966 86.6572C87.6426 86.2823 87.5094 85.8186 87.497 85.2661H89.0617C89.0792 85.5236 89.1526 85.7386 89.2821 85.9111C89.414 86.081 89.5896 86.2098 89.8086 86.2973C90.0302 86.3823 90.2805 86.4248 90.5593 86.4248C90.8332 86.4248 91.0709 86.3848 91.2726 86.3048C91.4768 86.2248 91.6348 86.1135 91.7469 85.9711C91.8589 85.8286 91.9149 85.6648 91.9149 85.4798C91.9149 85.3074 91.8639 85.1624 91.7618 85.0449C91.6622 84.9274 91.5153 84.8274 91.3211 84.7449C91.1294 84.6624 90.8942 84.5874 90.6153 84.5199L89.7825 84.3099C89.1377 84.1525 88.6285 83.9062 88.2551 83.5713C87.8816 83.2363 87.6961 82.7851 87.6986 82.2176C87.6961 81.7527 87.8194 81.3464 88.0683 80.999C88.3198 80.6515 88.6646 80.3803 89.1028 80.1853C89.541 79.9903 90.0389 79.8928 90.5966 79.8928C91.1643 79.8928 91.6597 79.9903 92.083 80.1853C92.5087 80.3803 92.8399 80.6515 93.0764 80.999C93.3129 81.3464 93.4349 81.7489 93.4424 82.2064H91.8925Z" fill="#58595B"/>
<path d="M97.1965 87.7897C96.6164 87.7897 96.1148 87.6659 95.6915 87.4184C95.2708 87.1685 94.9458 86.821 94.7168 86.376C94.4877 85.9286 94.3732 85.4099 94.3732 84.8199C94.3732 84.2249 94.4877 83.705 94.7168 83.26C94.9458 82.8126 95.2708 82.4651 95.6915 82.2176C96.1148 81.9676 96.6164 81.8426 97.1965 81.8426C97.7766 81.8426 98.2771 81.9676 98.6978 82.2176C99.1211 82.4651 99.4472 82.8126 99.6763 83.26C99.9053 83.705 100.02 84.2249 100.02 84.8199C100.02 85.4099 99.9053 85.9286 99.6763 86.376C99.4472 86.821 99.1211 87.1685 98.6978 87.4184C98.2771 87.6659 97.7766 87.7897 97.1965 87.7897ZM97.204 86.5523C97.4679 86.5523 97.6883 86.4773 97.865 86.3273C98.0418 86.1748 98.175 85.9673 98.2646 85.7048C98.3568 85.4423 98.4028 85.1436 98.4028 84.8087C98.4028 84.4737 98.3568 84.175 98.2646 83.9125C98.175 83.65 98.0418 83.4425 97.865 83.29C97.6883 83.1375 97.4679 83.0613 97.204 83.0613C96.9376 83.0613 96.7135 83.1375 96.5318 83.29C96.3525 83.4425 96.2168 83.65 96.1247 83.9125C96.0351 84.175 95.9903 84.4737 95.9903 84.8087C95.9903 85.1436 96.0351 85.4423 96.1247 85.7048C96.2168 85.9673 96.3525 86.1748 96.5318 86.3273C96.7135 86.4773 96.9376 86.5523 97.204 86.5523Z" fill="#58595B"/>
<path d="M102.645 79.9978V87.6772H101.054V79.9978H102.645Z" fill="#58595B"/>
<path d="M107.598 85.2249V81.9176H109.189V87.6772H107.662V86.631H107.602C107.472 86.9685 107.257 87.2397 106.956 87.4447C106.657 87.6497 106.292 87.7522 105.862 87.7522C105.478 87.7522 105.141 87.6647 104.85 87.4897C104.558 87.3147 104.33 87.066 104.166 86.7435C104.004 86.421 103.922 86.0348 103.92 85.5848V81.9176H105.511V85.2999C105.513 85.6398 105.604 85.9086 105.783 86.106C105.962 86.3035 106.203 86.4023 106.504 86.4023C106.696 86.4023 106.875 86.3585 107.042 86.271C107.209 86.181 107.343 86.0485 107.445 85.8736C107.55 85.6986 107.601 85.4823 107.598 85.2249Z" fill="#58595B"/>
<path d="M113.513 81.9176V83.1175H110.058V81.9176H113.513ZM110.843 80.5378H112.434V85.9073C112.434 86.0548 112.456 86.1698 112.501 86.2523C112.546 86.3323 112.608 86.3885 112.687 86.421C112.77 86.4535 112.864 86.4698 112.971 86.4698C113.046 86.4698 113.121 86.4635 113.195 86.451C113.27 86.436 113.327 86.4248 113.367 86.4173L113.617 87.6059C113.538 87.6309 113.426 87.6597 113.281 87.6922C113.137 87.7272 112.961 87.7484 112.755 87.7559C112.371 87.7709 112.035 87.7197 111.746 87.6022C111.46 87.4847 111.237 87.3022 111.078 87.0547C110.919 86.8072 110.84 86.4948 110.843 86.1173V80.5378Z" fill="#58595B"/>
<path d="M114.549 87.6772V81.9176H116.14V87.6772H114.549ZM115.348 81.1752C115.112 81.1752 114.909 81.0965 114.74 80.939C114.573 80.779 114.489 80.5877 114.489 80.3653C114.489 80.1453 114.573 79.9565 114.74 79.7991C114.909 79.6391 115.112 79.5591 115.348 79.5591C115.585 79.5591 115.787 79.6391 115.953 79.7991C116.123 79.9565 116.207 80.1453 116.207 80.3653C116.207 80.5877 116.123 80.779 115.953 80.939C115.787 81.0965 115.585 81.1752 115.348 81.1752Z" fill="#58595B"/>
<path d="M120.006 87.7897C119.426 87.7897 118.925 87.6659 118.501 87.4184C118.081 87.1685 117.756 86.821 117.527 86.376C117.298 85.9286 117.183 85.4099 117.183 84.8199C117.183 84.2249 117.298 83.705 117.527 83.26C117.756 82.8126 118.081 82.4651 118.501 82.2176C118.925 81.9676 119.426 81.8426 120.006 81.8426C120.586 81.8426 121.087 81.9676 121.508 82.2176C121.931 82.4651 122.257 82.8126 122.486 83.26C122.715 83.705 122.83 84.2249 122.83 84.8199C122.83 85.4099 122.715 85.9286 122.486 86.376C122.257 86.821 121.931 87.1685 121.508 87.4184C121.087 87.6659 120.586 87.7897 120.006 87.7897ZM120.014 86.5523C120.278 86.5523 120.498 86.4773 120.675 86.3273C120.852 86.1748 120.985 85.9673 121.074 85.7048C121.167 85.4423 121.213 85.1436 121.213 84.8087C121.213 84.4737 121.167 84.175 121.074 83.9125C120.985 83.65 120.852 83.4425 120.675 83.29C120.498 83.1375 120.278 83.0613 120.014 83.0613C119.747 83.0613 119.523 83.1375 119.342 83.29C119.162 83.4425 119.027 83.65 118.934 83.9125C118.845 84.175 118.8 84.4737 118.8 84.8087C118.8 85.1436 118.845 85.4423 118.934 85.7048C119.027 85.9673 119.162 86.1748 119.342 86.3273C119.523 86.4773 119.747 86.5523 120.014 86.5523Z" fill="#58595B"/>
<path d="M125.455 84.3474V87.6772H123.864V81.9176H125.38V82.9338H125.448C125.575 82.5988 125.787 82.3339 126.086 82.1389C126.385 81.9414 126.747 81.8426 127.173 81.8426C127.571 81.8426 127.919 81.9301 128.215 82.1051C128.511 82.2801 128.741 82.5301 128.906 82.8551C129.07 83.1775 129.152 83.5625 129.152 84.01V87.6772H127.561V84.2949C127.564 83.9425 127.474 83.6675 127.292 83.47C127.111 83.27 126.86 83.17 126.542 83.17C126.328 83.17 126.138 83.2163 125.974 83.3088C125.812 83.4013 125.685 83.5363 125.593 83.7137C125.504 83.8887 125.458 84.1 125.455 84.3474Z" fill="#58595B"/>
<path d="M135.179 83.56L133.722 83.65C133.698 83.525 133.644 83.4125 133.562 83.3125C133.48 83.21 133.371 83.1288 133.237 83.0688C133.105 83.0063 132.947 82.9751 132.763 82.9751C132.516 82.9751 132.308 83.0275 132.139 83.1325C131.97 83.235 131.885 83.3725 131.885 83.545C131.885 83.6825 131.94 83.7987 132.049 83.8937C132.159 83.9887 132.347 84.065 132.613 84.1225L133.651 84.3324C134.209 84.4474 134.625 84.6324 134.899 84.8874C135.173 85.1424 135.31 85.4773 135.31 85.8923C135.31 86.2698 135.199 86.601 134.977 86.886C134.758 87.171 134.457 87.3934 134.073 87.5534C133.693 87.7109 133.253 87.7897 132.755 87.7897C131.996 87.7897 131.391 87.6309 130.94 87.3134C130.492 86.9935 130.229 86.5585 130.152 86.0086L131.717 85.9261C131.764 86.1585 131.879 86.336 132.061 86.4585C132.242 86.5785 132.475 86.6385 132.759 86.6385C133.038 86.6385 133.262 86.5848 133.431 86.4773C133.603 86.3673 133.69 86.226 133.693 86.0535C133.69 85.9086 133.629 85.7898 133.51 85.6973C133.39 85.6023 133.206 85.5298 132.957 85.4798L131.963 85.2811C131.403 85.1686 130.986 84.9736 130.712 84.6962C130.441 84.4187 130.305 84.065 130.305 83.635C130.305 83.265 130.405 82.9463 130.604 82.6788C130.806 82.4113 131.088 82.2051 131.452 82.0601C131.818 81.9151 132.246 81.8426 132.736 81.8426C133.461 81.8426 134.031 81.9964 134.447 82.3039C134.865 82.6113 135.109 83.03 135.179 83.56Z" fill="#58595B"/>
<path d="M138.04 86.6273L137.999 87.0397C137.967 87.3697 137.905 87.6984 137.813 88.0259C137.723 88.3559 137.628 88.6546 137.529 88.9221C137.432 89.1895 137.353 89.3995 137.294 89.552H136.263C136.3 89.4045 136.351 89.1983 136.416 88.9333C136.481 88.6708 136.542 88.3759 136.599 88.0484C136.656 87.7209 136.692 87.3872 136.707 87.0472L136.726 86.6273H138.04Z" fill="#58595B"/>
<path d="M142.918 87.6772H141.185L143.825 79.9978H145.909L148.546 87.6772H146.813L144.897 81.7527H144.837L142.918 87.6772ZM142.81 84.6587H146.903V85.9261H142.81V84.6587Z" fill="#58595B"/>
<path d="M151.9 87.6772V79.9978H154.963C155.525 79.9978 155.995 80.0815 156.371 80.249C156.747 80.4165 157.029 80.649 157.218 80.9465C157.408 81.2414 157.502 81.5814 157.502 81.9664C157.502 82.2664 157.442 82.5301 157.323 82.7576C157.203 82.9826 157.039 83.1675 156.83 83.3125C156.623 83.455 156.387 83.5563 156.12 83.6162V83.6912C156.412 83.7037 156.684 83.7862 156.938 83.9387C157.195 84.0912 157.403 84.3049 157.562 84.5799C157.721 84.8524 157.801 85.1774 157.801 85.5548C157.801 85.9623 157.7 86.326 157.498 86.646C157.299 86.9635 157.004 87.2147 156.613 87.3997C156.223 87.5847 155.741 87.6772 155.168 87.6772H151.9ZM153.517 86.3498H154.836C155.286 86.3498 155.615 86.2635 155.822 86.091C156.028 85.9161 156.132 85.6836 156.132 85.3936C156.132 85.1811 156.081 84.9936 155.979 84.8311C155.876 84.6687 155.731 84.5412 155.542 84.4487C155.355 84.3562 155.132 84.3099 154.873 84.3099H153.517V86.3498ZM153.517 83.2113H154.716C154.938 83.2113 155.135 83.1725 155.306 83.095C155.481 83.015 155.618 82.9026 155.717 82.7576C155.819 82.6126 155.87 82.4388 155.87 82.2364C155.87 81.9589 155.772 81.7352 155.575 81.5652C155.381 81.3952 155.105 81.3102 154.746 81.3102H153.517V83.2113Z" fill="#58595B"/>
<path d="M161.438 87.7897C160.847 87.7897 160.34 87.6697 159.914 87.4297C159.491 87.1872 159.164 86.8447 158.935 86.4023C158.706 85.9573 158.592 85.4311 158.592 84.8236C158.592 84.2312 158.706 83.7112 158.935 83.2638C159.164 82.8163 159.487 82.4676 159.903 82.2176C160.321 81.9676 160.811 81.8426 161.374 81.8426C161.752 81.8426 162.105 81.9039 162.431 82.0264C162.76 82.1464 163.046 82.3276 163.29 82.5701C163.536 82.8126 163.728 83.1175 163.865 83.485C164.002 83.85 164.07 84.2774 164.07 84.7674V85.2061H159.227V84.2162H162.573C162.573 83.9862 162.523 83.7825 162.423 83.605C162.324 83.4275 162.186 83.2888 162.009 83.1888C161.835 83.0863 161.632 83.035 161.4 83.035C161.159 83.035 160.945 83.0913 160.758 83.2038C160.574 83.3138 160.429 83.4625 160.325 83.65C160.22 83.835 160.167 84.0412 160.164 84.2687V85.2099C160.164 85.4948 160.216 85.7411 160.321 85.9486C160.428 86.156 160.579 86.316 160.773 86.4285C160.967 86.541 161.197 86.5973 161.464 86.5973C161.64 86.5973 161.802 86.5723 161.949 86.5223C162.096 86.4723 162.222 86.3973 162.326 86.2973C162.431 86.1973 162.511 86.0748 162.565 85.9298L164.037 86.0273C163.962 86.3823 163.809 86.6922 163.577 86.9572C163.348 87.2197 163.052 87.4247 162.689 87.5722C162.328 87.7172 161.911 87.7897 161.438 87.7897Z" fill="#58595B"/>
<path d="M168.16 81.9176V83.1175H164.705V81.9176H168.16ZM165.49 80.5378H167.08V85.9073C167.08 86.0548 167.103 86.1698 167.148 86.2523C167.192 86.3323 167.255 86.3885 167.334 86.421C167.417 86.4535 167.511 86.4698 167.618 86.4698C167.693 86.4698 167.768 86.4635 167.842 86.451C167.917 86.436 167.974 86.4248 168.014 86.4173L168.264 87.6059C168.185 87.6309 168.073 87.6597 167.928 87.6922C167.784 87.7272 167.608 87.7484 167.402 87.7559C167.018 87.7709 166.682 87.7197 166.393 87.6022C166.107 87.4847 165.884 87.3022 165.725 87.0547C165.565 86.8072 165.487 86.4948 165.49 86.1173V80.5378Z" fill="#58595B"/>
<path d="M172.247 81.9176V83.1175H168.793V81.9176H172.247ZM169.577 80.5378H171.168V85.9073C171.168 86.0548 171.19 86.1698 171.235 86.2523C171.28 86.3323 171.342 86.3885 171.422 86.421C171.504 86.4535 171.599 86.4698 171.706 86.4698C171.78 86.4698 171.855 86.4635 171.93 86.451C172.004 86.436 172.062 86.4248 172.102 86.4173L172.352 87.6059C172.272 87.6309 172.16 87.6597 172.016 87.6922C171.871 87.7272 171.696 87.7484 171.489 87.7559C171.106 87.7709 170.77 87.7197 170.481 87.6022C170.194 87.4847 169.972 87.3022 169.812 87.0547C169.653 86.8072 169.574 86.4948 169.577 86.1173V80.5378Z" fill="#58595B"/>
<path d="M175.836 87.7897C175.246 87.7897 174.738 87.6697 174.312 87.4297C173.889 87.1872 173.563 86.8447 173.334 86.4023C173.105 85.9573 172.99 85.4311 172.99 84.8236C172.99 84.2312 173.105 83.7112 173.334 83.2638C173.563 82.8163 173.885 82.4676 174.301 82.2176C174.719 81.9676 175.21 81.8426 175.773 81.8426C176.151 81.8426 176.503 81.9039 176.829 82.0264C177.158 82.1464 177.444 82.3276 177.688 82.5701C177.935 82.8126 178.127 83.1175 178.264 83.485C178.4 83.85 178.469 84.2774 178.469 84.7674V85.2061H173.625V84.2162H176.971C176.971 83.9862 176.922 83.7825 176.822 83.605C176.722 83.4275 176.584 83.2888 176.407 83.1888C176.233 83.0863 176.03 83.035 175.799 83.035C175.557 83.035 175.343 83.0913 175.156 83.2038C174.972 83.3138 174.828 83.4625 174.723 83.65C174.619 83.835 174.565 84.0412 174.563 84.2687V85.2099C174.563 85.4948 174.615 85.7411 174.719 85.9486C174.827 86.156 174.977 86.316 175.171 86.4285C175.366 86.541 175.596 86.5973 175.862 86.5973C176.039 86.5973 176.201 86.5723 176.348 86.5223C176.495 86.4723 176.62 86.3973 176.725 86.2973C176.829 86.1973 176.909 86.0748 176.964 85.9298L178.435 86.0273C178.361 86.3823 178.208 86.6922 177.976 86.9572C177.747 87.2197 177.451 87.4247 177.087 87.5722C176.726 87.7172 176.309 87.7897 175.836 87.7897Z" fill="#58595B"/>
<path d="M179.507 87.6772V81.9176H181.05V82.9226H181.109C181.214 82.5651 181.389 82.2951 181.636 82.1126C181.882 81.9276 182.166 81.8351 182.487 81.8351C182.567 81.8351 182.653 81.8401 182.745 81.8501C182.837 81.8601 182.918 81.8739 182.988 81.8914V83.3088C182.913 83.2863 182.81 83.2663 182.678 83.2488C182.546 83.2313 182.425 83.2225 182.316 83.2225C182.082 83.2225 181.872 83.2738 181.688 83.3763C181.506 83.4763 181.362 83.6162 181.255 83.7962C181.15 83.9762 181.098 84.1837 181.098 84.4187V87.6772H179.507Z" fill="#58595B"/>
<path d="M186.274 87.6772V79.9978H191.338V81.3364H187.891V83.1663H191.002V84.5049H187.891V87.6772H186.274Z" fill="#58595B"/>
<path d="M195.715 85.2249V81.9176H197.306V87.6772H195.779V86.631H195.719C195.589 86.9685 195.374 87.2397 195.073 87.4447C194.774 87.6497 194.409 87.7522 193.979 87.7522C193.595 87.7522 193.258 87.6647 192.967 87.4897C192.675 87.3147 192.447 87.066 192.283 86.7435C192.121 86.421 192.039 86.0348 192.037 85.5848V81.9176H193.628V85.2999C193.63 85.6398 193.721 85.9086 193.9 86.106C194.079 86.3035 194.32 86.4023 194.621 86.4023C194.813 86.4023 194.992 86.3585 195.159 86.271C195.326 86.181 195.46 86.0485 195.562 85.8736C195.667 85.6986 195.718 85.4823 195.715 85.2249Z" fill="#58595B"/>
<path d="M201.63 81.9176V83.1175H198.175V81.9176H201.63ZM198.96 80.5378H200.55V85.9073C200.55 86.0548 200.573 86.1698 200.618 86.2523C200.663 86.3323 200.725 86.3885 200.804 86.421C200.887 86.4535 200.981 86.4698 201.088 86.4698C201.163 86.4698 201.238 86.4635 201.312 86.451C201.387 86.436 201.444 86.4248 201.484 86.4173L201.734 87.6059C201.655 87.6309 201.543 87.6597 201.398 87.6922C201.254 87.7272 201.078 87.7484 200.872 87.7559C200.488 87.7709 200.152 87.7197 199.863 87.6022C199.577 87.4847 199.354 87.3022 199.195 87.0547C199.035 86.8072 198.957 86.4948 198.96 86.1173V80.5378Z" fill="#58595B"/>
<path d="M206.345 85.2249V81.9176H207.936V87.6772H206.408V86.631H206.348C206.219 86.9685 206.004 87.2397 205.702 87.4447C205.404 87.6497 205.039 87.7522 204.608 87.7522C204.225 87.7522 203.887 87.6647 203.596 87.4897C203.305 87.3147 203.077 87.066 202.913 86.7435C202.751 86.421 202.669 86.0348 202.666 85.5848V81.9176H204.257V85.2999C204.26 85.6398 204.35 85.9086 204.53 86.106C204.709 86.3035 204.949 86.4023 205.25 86.4023C205.442 86.4023 205.621 86.3585 205.788 86.271C205.955 86.181 206.089 86.0485 206.192 85.8736C206.296 85.6986 206.347 85.4823 206.345 85.2249Z" fill="#58595B"/>
<path d="M209.208 87.6772V81.9176H210.75V82.9226H210.81C210.915 82.5651 211.09 82.2951 211.337 82.1126C211.583 81.9276 211.867 81.8351 212.188 81.8351C212.268 81.8351 212.354 81.8401 212.446 81.8501C212.538 81.8601 212.619 81.8739 212.689 81.8914V83.3088C212.614 83.2863 212.511 83.2663 212.379 83.2488C212.247 83.2313 212.126 83.2225 212.017 83.2225C211.782 83.2225 211.573 83.2738 211.389 83.3763C211.207 83.4763 211.063 83.6162 210.956 83.7962C210.851 83.9762 210.799 84.1837 210.799 84.4187V87.6772H209.208Z" fill="#58595B"/>
<path d="M215.858 87.7897C215.268 87.7897 214.76 87.6697 214.335 87.4297C213.911 87.1872 213.585 86.8447 213.356 86.4023C213.127 85.9573 213.013 85.4311 213.013 84.8236C213.013 84.2312 213.127 83.7112 213.356 83.2638C213.585 82.8163 213.908 82.4676 214.324 82.2176C214.742 81.9676 215.232 81.8426 215.795 81.8426C216.173 81.8426 216.526 81.9039 216.852 82.0264C217.18 82.1464 217.467 82.3276 217.711 82.5701C217.957 82.8126 218.149 83.1175 218.286 83.485C218.423 83.85 218.491 84.2774 218.491 84.7674V85.2061H213.648V84.2162H216.994C216.994 83.9862 216.944 83.7825 216.844 83.605C216.745 83.4275 216.607 83.2888 216.43 83.1888C216.256 83.0863 216.053 83.035 215.821 83.035C215.58 83.035 215.365 83.0913 215.179 83.2038C214.995 83.3138 214.85 83.4625 214.746 83.65C214.641 83.835 214.587 84.0412 214.585 84.2687V85.2099C214.585 85.4948 214.637 85.7411 214.742 85.9486C214.849 86.156 214.999 86.316 215.194 86.4285C215.388 86.541 215.618 86.5973 215.885 86.5973C216.061 86.5973 216.223 86.5723 216.37 86.5223C216.517 86.4723 216.643 86.3973 216.747 86.2973C216.852 86.1973 216.931 86.0748 216.986 85.9298L218.458 86.0273C218.383 86.3823 218.23 86.6922 217.998 86.9572C217.769 87.2197 217.473 87.4247 217.11 87.5722C216.749 87.7172 216.331 87.7897 215.858 87.7897Z" fill="#58595B"/>
<path fill-rule="evenodd" clip-rule="evenodd" d="M0 5.10647C0 2.27587 2.22875 0.0380859 5.04793 0.0380859H188.666C209.258 0.0380859 226 16.8475 226 37.523V56.9518C226 66.8689 217.975 74.7967 208.227 74.7967H17.7729C7.8958 74.7967 0 66.7395 0 56.9518V5.10647ZM5.25826 5.31765V56.9518C5.25826 63.8476 10.8236 69.5172 17.7729 69.5172H208.227C215.095 69.5172 220.742 63.9293 220.742 56.9518V37.523C220.742 19.7633 206.354 5.31765 188.666 5.31765H5.25826Z" fill="#81C216"/>
<path d="M32.4955 57.7965C29.5509 57.7965 27.0269 57.163 24.8185 55.8959C22.7152 54.6288 21.0325 52.8337 19.8757 50.5107C18.7189 48.1877 18.0879 45.4424 18.0879 42.2746C18.0879 39.2125 18.7189 36.4671 19.8757 34.0385C21.0325 31.7155 22.61 29.8148 24.7133 28.5477C26.8166 27.1751 29.2354 26.5415 32.0749 26.5415C33.7575 26.5415 35.4401 26.8583 37.0176 27.3862C38.5951 27.9142 40.0674 28.8645 41.3294 30.026C42.5914 31.1875 43.643 32.7714 44.3792 34.672C45.1153 36.5727 45.4308 38.8957 45.4308 41.6411V43.7529L21.4532 46.4983V42.2746L39.6468 39.5292C39.6468 37.9454 39.3313 36.5727 38.7003 35.4112C38.0693 34.2497 37.228 33.2993 36.0711 32.5602C34.9143 31.8211 33.6523 31.5043 32.0749 31.5043C30.3922 31.5043 29.0251 31.9267 27.7631 32.6658C26.5011 33.5105 25.5546 34.5664 24.9236 35.8335C24.2926 37.1006 23.9771 38.5789 23.9771 40.0572V43.5417C23.9771 45.5479 24.2926 47.2374 25.0288 48.7157C25.7649 50.0884 26.7114 51.2499 27.9734 51.989C29.2354 52.7282 30.7077 53.1505 32.4955 53.1505C33.6523 53.1505 34.5988 52.9393 35.5453 52.6226C36.4918 52.3058 37.228 51.7778 37.9641 51.1443C38.5951 50.5107 39.1209 49.666 39.5416 48.7157L45.1153 49.7716C44.6947 51.4611 43.8534 52.8337 42.6965 54.1008C41.5397 55.3679 40.1726 56.3183 38.3848 56.9518C36.597 57.4798 34.5988 57.7965 32.4955 57.7965Z" fill="#81C216"/>
<path d="M55.5269 39.3181V57.2686H49.6377V26.9639H55.3166V31.9267H55.7373C56.4734 30.3428 57.5251 29.0757 58.9974 28.0198C60.4697 27.0695 62.3627 26.5415 64.5712 26.5415C66.6745 26.5415 68.4623 26.9639 69.9346 27.8086C71.5121 28.6533 72.6689 29.9204 73.5102 31.6099C74.3515 33.2993 74.7722 35.4112 74.7722 37.8398V57.0574H68.8829V38.6845C68.8829 36.4671 68.3571 34.7776 67.2003 33.5105C66.0435 32.2434 64.466 31.6099 62.4678 31.6099C61.1007 31.6099 59.9439 31.9267 58.8922 32.4546C57.8406 33.0882 56.9993 33.9329 56.3683 35.0944C55.8424 36.2559 55.5269 37.6286 55.5269 39.3181Z" fill="#81C216"/>
<path d="M89.285 57.9021C87.392 57.9021 85.6042 57.5854 84.1319 56.8462C82.5544 56.1071 81.3976 55.0512 80.4511 53.6785C79.5046 52.3058 79.084 50.6163 79.084 48.6101C79.084 46.9206 79.3995 45.5479 80.0305 44.3864C80.6615 43.3305 81.608 42.3802 82.6596 41.7467C83.8164 41.1131 84.9732 40.5851 86.3404 40.2684C87.7075 39.9516 89.0747 39.7404 90.547 39.5292C92.3348 39.3181 93.8071 39.1069 94.9639 39.0013C96.1208 38.8957 96.8569 38.6845 97.3827 38.3677C97.9086 38.051 98.1189 37.523 98.1189 36.7839V36.6783C98.1189 34.9888 97.5931 33.6161 96.6466 32.6658C95.7001 31.7155 94.2278 31.2931 92.3348 31.2931C90.3367 31.2931 88.7592 31.7155 87.7075 32.5602C86.5507 33.4049 85.8146 34.3553 85.3939 35.5168L79.9253 34.2497C80.5563 32.4546 81.5028 30.9763 82.7648 29.8148C84.0267 28.6533 85.4991 27.8086 87.0765 27.2806C88.7592 26.7527 90.4418 26.5415 92.2296 26.5415C93.3864 26.5415 94.7536 26.6471 96.0156 26.9639C97.3827 27.2806 98.6447 27.8086 99.8015 28.5477C100.958 29.2869 101.905 30.3428 102.746 31.7155C103.482 33.0882 103.903 34.8832 103.903 37.1006V57.163H98.2241V53.0449H98.0137C97.5931 53.7841 97.0672 54.5232 96.3311 55.2623C95.5949 56.0015 94.6484 56.635 93.3865 57.0574C92.3348 57.6909 90.8625 57.9021 89.285 57.9021ZM90.547 53.1505C92.1245 53.1505 93.5968 52.8337 94.7536 52.2002C95.9104 51.5666 96.7517 50.7219 97.3827 49.666C98.0137 48.6101 98.3292 47.5542 98.3292 46.2871V42.3802C98.1189 42.5914 97.6982 42.8026 97.1724 43.0138C96.5414 43.2249 95.9104 43.3305 95.1743 43.4361C94.4381 43.5417 93.702 43.6473 92.9658 43.7529C92.2296 43.8585 91.5986 43.9641 91.178 43.9641C90.0212 44.0697 88.9695 44.3864 88.023 44.7032C87.0765 45.02 86.3404 45.5479 85.8146 46.1815C85.2887 46.815 84.9732 47.6598 84.9732 48.7157C84.9732 50.194 85.4991 51.2499 86.5507 51.989C87.4972 52.8337 88.8643 53.1505 90.547 53.1505Z" fill="#81C216"/>
<path d="M109.056 57.2685V16.9326H114.945V31.9266H115.26C115.576 31.293 116.102 30.5539 116.733 29.7092C117.364 28.8644 118.31 28.1253 119.362 27.4917C120.519 26.8582 121.991 26.5414 123.884 26.5414C126.303 26.5414 128.511 27.175 130.404 28.4421C132.297 29.7092 133.769 31.5042 134.926 33.8272C135.978 36.1502 136.609 38.8956 136.609 42.1689C136.609 45.4423 136.083 48.1877 135.031 50.6162C133.98 52.9393 132.508 54.7343 130.509 56.0014C128.616 57.2685 126.408 57.9021 123.989 57.9021C122.201 57.9021 120.624 57.5853 119.467 56.9517C118.31 56.3182 117.364 55.579 116.733 54.7343C116.102 53.8896 115.576 53.1504 115.26 52.5169H114.735V57.2685H109.056ZM114.84 42.0634C114.84 44.1752 115.155 46.0758 115.786 47.6597C116.417 49.2436 117.259 50.5107 118.415 51.461C119.572 52.4113 121.044 52.8337 122.727 52.8337C124.515 52.8337 125.987 52.4113 127.144 51.461C128.301 50.5107 129.247 49.2436 129.773 47.6597C130.404 46.0758 130.72 44.1752 130.72 42.1689C130.72 40.1627 130.404 38.3677 129.878 36.7838C129.247 35.1999 128.406 33.9328 127.249 32.9825C126.092 32.0322 124.62 31.6098 122.832 31.6098C121.15 31.6098 119.677 32.0322 118.521 32.9825C117.364 33.8272 116.417 35.0943 115.891 36.6782C115.155 38.1565 114.84 40.0571 114.84 42.0634Z" fill="#81C216"/>
<path d="M146.81 16.9326V57.2685H140.921V16.9326H146.81Z" fill="#81C216"/>
<path d="M165.425 57.7965C162.481 57.7965 159.957 57.163 157.748 55.8959C155.645 54.6288 153.962 52.8337 152.805 50.5107C151.649 48.1877 151.018 45.4424 151.018 42.2746C151.018 39.2125 151.649 36.4671 152.805 34.0385C153.962 31.7155 155.54 29.8148 157.643 28.5477C159.746 27.1751 162.165 26.5415 165.005 26.5415C166.687 26.5415 168.37 26.8583 169.947 27.3862C171.525 27.9142 172.997 28.8645 174.259 30.026C175.521 31.1875 176.573 32.7714 177.309 34.672C178.045 36.5727 178.361 38.8957 178.361 41.6411V43.7529L154.383 46.4983V42.2746L172.576 39.5292C172.576 37.9454 172.261 36.5727 171.63 35.4112C170.999 34.2497 170.158 33.2993 169.001 32.5602C167.844 31.8211 166.582 31.5043 165.005 31.5043C163.322 31.5043 161.955 31.9267 160.693 32.6658C159.431 33.5105 158.484 34.5664 157.853 35.8335C157.222 37.1006 156.907 38.5789 156.907 40.0572V43.5417C156.907 45.5479 157.222 47.2374 157.958 48.7157C158.695 50.0884 159.641 51.2499 160.903 51.989C162.165 52.7282 163.637 53.1505 165.425 53.1505C166.582 53.1505 167.529 52.9393 168.475 52.6226C169.421 52.3058 170.158 51.7778 170.894 51.1443C171.525 50.5107 172.051 49.666 172.471 48.7157L178.045 49.7716C177.624 51.4611 176.783 52.8337 175.626 54.1008C174.469 55.3679 173.102 56.3183 171.314 56.9518C169.632 57.4798 167.634 57.7965 165.425 57.7965Z" fill="#81C216"/>
<path d="M188.56 39.3181V57.2686H182.671V26.9639H188.35V31.9267H188.77C189.507 30.3428 190.558 29.0757 192.031 28.0198C193.503 27.0695 195.396 26.5415 197.604 26.5415C199.708 26.5415 201.495 26.9639 202.968 27.8086C204.44 28.6533 205.702 29.9204 206.543 31.6099C207.385 33.2993 207.805 35.4112 207.805 37.8398V57.0574H201.916V38.6845C201.916 36.4671 201.39 34.7776 200.233 33.5105C199.077 32.2434 197.499 31.6099 195.501 31.6099C194.134 31.6099 192.977 31.9267 191.925 32.4546C190.874 33.0882 190.032 33.9329 189.401 35.0944C188.876 36.2559 188.56 37.6286 188.56 39.3181Z" fill="#81C216"/>
</svg>
