<svg width=[width] height=[height] viewBox="0 0 150 60" fill="none" xmlns="http://www.w3.org/2000/svg">
<path class="logo_text_path" d="M1.25391 53.5958H2.45607L3.61362 55.8126H3.66319L4.82074 53.5958H6.02291L4.17132 56.9235V58.7432H3.10549V56.9235L1.25391 53.5958Z" fill="white"/>
<path class="logo_text_path" d="M7.51198 58.8186C7.12696 58.8186 6.79398 58.7357 6.51307 58.5698C6.2338 58.4022 6.01815 58.1693 5.86613 57.8711C5.7141 57.5711 5.63809 57.2235 5.63809 56.828C5.63809 56.4292 5.7141 56.0807 5.86613 55.7825C6.01815 55.4825 6.2338 55.2496 6.51307 55.0837C6.79398 54.9162 7.12696 54.8324 7.51198 54.8324C7.897 54.8324 8.22915 54.9162 8.50841 55.0837C8.78933 55.2496 9.0058 55.4825 9.15783 55.7825C9.30985 56.0807 9.38587 56.4292 9.38587 56.828C9.38587 57.2235 9.30985 57.5711 9.15783 57.8711C9.0058 58.1693 8.78933 58.4022 8.50841 58.5698C8.22915 58.7357 7.897 58.8186 7.51198 58.8186ZM7.51694 57.9892C7.6921 57.9892 7.83834 57.9389 7.95566 57.8384C8.07299 57.7362 8.1614 57.5971 8.22088 57.4212C8.28202 57.2452 8.3126 57.045 8.3126 56.8205C8.3126 56.596 8.28202 56.3957 8.22088 56.2198C8.1614 56.0438 8.07299 55.9048 7.95566 55.8026C7.83834 55.7004 7.6921 55.6492 7.51694 55.6492C7.34012 55.6492 7.1914 55.7004 7.07077 55.8026C6.95179 55.9048 6.86174 56.0438 6.80059 56.2198C6.74111 56.3957 6.71136 56.596 6.71136 56.8205C6.71136 57.045 6.74111 57.2452 6.80059 57.4212C6.86174 57.5971 6.95179 57.7362 7.07077 57.8384C7.1914 57.9389 7.34012 57.9892 7.51694 57.9892Z" fill="white"/>
<path class="logo_text_path" d="M12.514 57.0995V54.8827H13.5699V58.7432H12.5561V58.042H12.5165C12.4305 58.2682 12.2876 58.45 12.0876 58.5874C11.8893 58.7248 11.6473 58.7935 11.3614 58.7935C11.1069 58.7935 10.883 58.7348 10.6897 58.6175C10.4963 58.5002 10.3451 58.3335 10.2361 58.1174C10.1286 57.9012 10.0741 57.6424 10.0725 57.3407V54.8827H11.1284V57.1497C11.13 57.3776 11.1904 57.5577 11.3093 57.6901C11.4283 57.8225 11.5878 57.8887 11.7877 57.8887C11.915 57.8887 12.0339 57.8593 12.1446 57.8007C12.2554 57.7404 12.3446 57.6516 12.4123 57.5343C12.4818 57.417 12.5156 57.272 12.514 57.0995Z" fill="white"/>
<path class="logo_text_path" d="M14.4145 58.7432V54.8827H15.4382V55.5563H15.4779C15.5473 55.3166 15.6638 55.1357 15.8274 55.0134C15.991 54.8894 16.1793 54.8274 16.3925 54.8274C16.4454 54.8274 16.5024 54.8307 16.5635 54.8374C16.6247 54.8441 16.6784 54.8533 16.7247 54.8651V55.8151C16.6751 55.8 16.6065 55.7866 16.5189 55.7749C16.4313 55.7632 16.3512 55.7573 16.2785 55.7573C16.1232 55.7573 15.9843 55.7917 15.8621 55.8604C15.7414 55.9274 15.6456 56.0212 15.5745 56.1419C15.5051 56.2625 15.4704 56.4016 15.4704 56.5591V58.7432H14.4145Z" fill="white"/>
<path class="logo_text_path" d="M19.823 53.5958L21.05 57.5066H21.0971L22.3265 53.5958H23.5163L21.7663 58.7432H20.3832L18.6308 53.5958H19.823Z" fill="white"/>
<path class="logo_text_path" d="M24.1074 58.7432V54.8827H25.1633V58.7432H24.1074ZM24.6379 54.385C24.4809 54.385 24.3462 54.3322 24.2338 54.2267C24.1231 54.1194 24.0678 53.9913 24.0678 53.8421C24.0678 53.6947 24.1231 53.5682 24.2338 53.4626C24.3462 53.3554 24.4809 53.3018 24.6379 53.3018C24.7948 53.3018 24.9287 53.3554 25.0394 53.4626C25.1518 53.5682 25.208 53.6947 25.208 53.8421C25.208 53.9913 25.1518 54.1194 25.0394 54.2267C24.9287 54.3322 24.7948 54.385 24.6379 54.385Z" fill="white"/>
<path class="logo_text_path" d="M29.177 55.9835L28.2103 56.0438C28.1938 55.9601 28.1582 55.8847 28.1037 55.8176C28.0492 55.7489 27.9773 55.6945 27.888 55.6543C27.8005 55.6124 27.6955 55.5914 27.5733 55.5914C27.4097 55.5914 27.2717 55.6266 27.1593 55.697C27.0469 55.7657 26.9908 55.8579 26.9908 55.9735C26.9908 56.0656 27.0271 56.1435 27.0998 56.2072C27.1725 56.2709 27.2973 56.322 27.4741 56.3605L28.1632 56.5013C28.5333 56.5784 28.8093 56.7024 28.9911 56.8733C29.1728 57.0442 29.2637 57.2687 29.2637 57.5468C29.2637 57.7999 29.1902 58.0219 29.0431 58.2129C28.8977 58.4039 28.6978 58.553 28.4433 58.6603C28.1904 58.7658 27.8988 58.8186 27.5683 58.8186C27.0643 58.8186 26.6628 58.7122 26.3637 58.4994C26.0662 58.2849 25.8919 57.9934 25.8407 57.6248L26.8792 57.5695C26.9106 57.7253 26.9866 57.8443 27.1073 57.9264C27.2279 58.0068 27.3824 58.047 27.5708 58.047C27.7558 58.047 27.9046 58.011 28.0169 57.9389C28.131 57.8652 28.1888 57.7705 28.1904 57.6549C28.1888 57.5577 28.1483 57.4781 28.069 57.4161C27.9897 57.3525 27.8674 57.3039 27.7021 57.2704L27.0428 57.1372C26.671 57.0618 26.3942 56.9311 26.2125 56.7451C26.0323 56.5591 25.9423 56.322 25.9423 56.0338C25.9423 55.7858 26.0084 55.5722 26.1406 55.3929C26.2744 55.2136 26.462 55.0754 26.7032 54.9782C26.9461 54.881 27.2304 54.8324 27.5559 54.8324C28.0368 54.8324 28.4152 54.9354 28.6911 55.1415C28.9688 55.3476 29.1307 55.6283 29.177 55.9835Z" fill="white"/>
<path class="logo_text_path" d="M29.9286 58.7432V54.8827H30.9846V58.7432H29.9286ZM30.4591 54.385C30.3021 54.385 30.1674 54.3322 30.055 54.2267C29.9443 54.1194 29.889 53.9913 29.889 53.8421C29.889 53.6947 29.9443 53.5682 30.055 53.4626C30.1674 53.3554 30.3021 53.3018 30.4591 53.3018C30.6161 53.3018 30.7499 53.3554 30.8606 53.4626C30.973 53.5682 31.0292 53.6947 31.0292 53.8421C31.0292 53.9913 30.973 54.1194 30.8606 54.2267C30.7499 54.3322 30.6161 54.385 30.4591 54.385Z" fill="white"/>
<path class="logo_text_path" d="M33.5506 58.8186C33.1656 58.8186 32.8326 58.7357 32.5517 58.5698C32.2724 58.4022 32.0568 58.1693 31.9048 57.8711C31.7527 57.5711 31.6767 57.2235 31.6767 56.828C31.6767 56.4292 31.7527 56.0807 31.9048 55.7825C32.0568 55.4825 32.2724 55.2496 32.5517 55.0837C32.8326 54.9162 33.1656 54.8324 33.5506 54.8324C33.9356 54.8324 34.2678 54.9162 34.547 55.0837C34.828 55.2496 35.0444 55.4825 35.1965 55.7825C35.3485 56.0807 35.4245 56.4292 35.4245 56.828C35.4245 57.2235 35.3485 57.5711 35.1965 57.8711C35.0444 58.1693 34.828 58.4022 34.547 58.5698C34.2678 58.7357 33.9356 58.8186 33.5506 58.8186ZM33.5556 57.9892C33.7307 57.9892 33.877 57.9389 33.9943 57.8384C34.1116 57.7362 34.2 57.5971 34.2595 57.4212C34.3207 57.2452 34.3512 57.045 34.3512 56.8205C34.3512 56.596 34.3207 56.3957 34.2595 56.2198C34.2 56.0438 34.1116 55.9048 33.9943 55.8026C33.877 55.7004 33.7307 55.6492 33.5556 55.6492C33.3788 55.6492 33.23 55.7004 33.1094 55.8026C32.9904 55.9048 32.9004 56.0438 32.8392 56.2198C32.7797 56.3957 32.75 56.596 32.75 56.8205C32.75 57.045 32.7797 57.2452 32.8392 57.4212C32.9004 57.5971 32.9904 57.7362 33.1094 57.8384C33.23 57.9389 33.3788 57.9892 33.5556 57.9892Z" fill="white"/>
<path class="logo_text_path" d="M37.167 56.5113V58.7432H36.1111V54.8827H37.1175V55.5638H37.1621C37.2463 55.3393 37.3876 55.1617 37.5859 55.031C37.7842 54.8986 38.0247 54.8324 38.3072 54.8324C38.5716 54.8324 38.8021 54.891 38.9988 55.0083C39.1954 55.1256 39.3483 55.2932 39.4573 55.511C39.5664 55.7272 39.6209 55.9852 39.6209 56.2851V58.7432H38.565V56.4761C38.5667 56.2399 38.5072 56.0556 38.3865 55.9232C38.2659 55.7892 38.0998 55.7221 37.8883 55.7221C37.7462 55.7221 37.6206 55.7531 37.5116 55.8151C37.4042 55.8771 37.3199 55.9676 37.2587 56.0866C37.1992 56.2039 37.1687 56.3455 37.167 56.5113Z" fill="white"/>
<path class="logo_text_path" d="M41.6008 58.0395L41.5735 58.3159C41.552 58.5371 41.5107 58.7575 41.4496 58.977C41.3901 59.1981 41.3273 59.3984 41.2612 59.5776C41.1968 59.7569 41.1447 59.8977 41.105 59.9999H40.4209C40.4457 59.901 40.4796 59.7628 40.5225 59.5852C40.5655 59.4093 40.606 59.2115 40.644 58.992C40.682 58.7725 40.706 58.5488 40.7159 58.321L40.7283 58.0395H41.6008Z" fill="white"/>
<path class="logo_text_path" d="M48.6279 56.1695C48.6279 56.7308 48.5229 57.2084 48.3131 57.6021C48.1049 57.9959 47.8206 58.2967 47.4604 58.5044C47.1018 58.7105 46.6986 58.8136 46.2508 58.8136C45.7997 58.8136 45.3948 58.7097 45.0362 58.5019C44.6777 58.2942 44.3943 57.9934 44.1861 57.5996C43.9778 57.2059 43.8737 56.7292 43.8737 56.1695C43.8737 55.6082 43.9778 55.1307 44.1861 54.7369C44.3943 54.3431 44.6777 54.0432 45.0362 53.8371C45.3948 53.6293 45.7997 53.5254 46.2508 53.5254C46.6986 53.5254 47.1018 53.6293 47.4604 53.8371C47.8206 54.0432 48.1049 54.3431 48.3131 54.7369C48.5229 55.1307 48.6279 55.6082 48.6279 56.1695ZM47.5397 56.1695C47.5397 55.8059 47.486 55.4993 47.3786 55.2496C47.2729 55 47.1233 54.8106 46.93 54.6816C46.7366 54.5526 46.5102 54.4881 46.2508 54.4881C45.9914 54.4881 45.765 54.5526 45.5716 54.6816C45.3783 54.8106 45.2279 55 45.1205 55.2496C45.0148 55.4993 44.9619 55.8059 44.9619 56.1695C44.9619 56.5331 45.0148 56.8397 45.1205 57.0894C45.2279 57.3391 45.3783 57.5284 45.5716 57.6574C45.765 57.7865 45.9914 57.851 46.2508 57.851C46.5102 57.851 46.7366 57.7865 46.93 57.6574C47.1233 57.5284 47.2729 57.3391 47.3786 57.0894C47.486 56.8397 47.5397 56.5331 47.5397 56.1695Z" fill="white"/>
<path class="logo_text_path" d="M51.8446 57.0995V54.8827H52.9005V58.7432H51.8867V58.042H51.8471C51.7611 58.2682 51.6182 58.45 51.4183 58.5874C51.22 58.7248 50.9779 58.7935 50.692 58.7935C50.4375 58.7935 50.2136 58.7348 50.0203 58.6175C49.8269 58.5002 49.6757 58.3335 49.5667 58.1174C49.4593 57.9012 49.4047 57.6424 49.4031 57.3407V54.8827H50.459V57.1497C50.4607 57.3776 50.521 57.5577 50.6399 57.6901C50.7589 57.8225 50.9184 57.8887 51.1183 57.8887C51.2456 57.8887 51.3645 57.8593 51.4753 57.8007C51.586 57.7404 51.6752 57.6516 51.743 57.5343C51.8124 57.417 51.8462 57.272 51.8446 57.0995Z" fill="white"/>
<path class="logo_text_path" d="M53.7451 58.7432V54.8827H54.7688V55.5563H54.8085C54.8779 55.3166 54.9944 55.1357 55.158 55.0134C55.3216 54.8894 55.5099 54.8274 55.7231 54.8274C55.776 54.8274 55.833 54.8307 55.8941 54.8374C55.9553 54.8441 56.009 54.8533 56.0553 54.8651V55.8151C56.0057 55.8 55.9371 55.7866 55.8495 55.7749C55.7619 55.7632 55.6818 55.7573 55.6091 55.7573C55.4538 55.7573 55.315 55.7917 55.1927 55.8604C55.072 55.9274 54.9762 56.0212 54.9052 56.1419C54.8357 56.2625 54.801 56.4016 54.801 56.5591V58.7432H53.7451Z" fill="white"/>
<path class="logo_text_path" d="M60.9903 55.0762C60.9705 54.8735 60.8854 54.7159 60.735 54.6037C60.5847 54.4914 60.3806 54.4353 60.1228 54.4353C59.9476 54.4353 59.7997 54.4604 59.6791 54.5107C59.5585 54.5593 59.4659 54.6271 59.4015 54.7143C59.3387 54.8014 59.3073 54.9003 59.3073 55.0109C59.304 55.103 59.323 55.1834 59.3643 55.2521C59.4073 55.3208 59.4659 55.3803 59.5403 55.4306C59.6147 55.4792 59.7006 55.5219 59.7981 55.5588C59.8956 55.594 59.9997 55.6241 60.1104 55.6492L60.5665 55.7598C60.7879 55.8101 60.9912 55.8771 61.1762 55.9609C61.3613 56.0447 61.5216 56.1477 61.6571 56.2701C61.7926 56.3924 61.8975 56.5365 61.9719 56.7023C62.0479 56.8682 62.0867 57.0584 62.0884 57.2729C62.0867 57.5879 62.0074 57.861 61.8504 58.0922C61.6951 58.3218 61.4704 58.5002 61.1762 58.6276C60.8838 58.7533 60.5309 58.8161 60.1178 58.8161C59.708 58.8161 59.3511 58.7524 59.047 58.6251C58.7446 58.4977 58.5083 58.3092 58.3381 58.0596C58.1696 57.8082 58.0812 57.4974 58.0729 57.1271H59.1115C59.1231 57.2997 59.1718 57.4438 59.2577 57.5594C59.3453 57.6733 59.4618 57.7596 59.6072 57.8183C59.7543 57.8753 59.9204 57.9037 60.1054 57.9037C60.2872 57.9037 60.445 57.8769 60.5789 57.8233C60.7144 57.7697 60.8193 57.6951 60.8937 57.5996C60.968 57.5041 61.0052 57.3944 61.0052 57.2704C61.0052 57.1548 60.9713 57.0576 60.9036 56.9788C60.8375 56.9001 60.74 56.833 60.6111 56.7778C60.4839 56.7225 60.3277 56.6722 60.1426 56.6269L59.5899 56.4862C59.1619 56.3806 58.824 56.2156 58.5761 55.9911C58.3282 55.7665 58.2051 55.4641 58.2068 55.0837C58.2051 54.7721 58.2869 54.4998 58.4522 54.2669C58.6191 54.034 58.8479 53.8522 59.1388 53.7215C59.4296 53.5908 59.7601 53.5254 60.1302 53.5254C60.507 53.5254 60.8358 53.5908 61.1167 53.7215C61.3993 53.8522 61.6191 54.034 61.7761 54.2669C61.9331 54.4998 62.014 54.7696 62.019 55.0762H60.9903Z" fill="white"/>
<path class="logo_text_path" d="M64.5107 58.8186C64.1257 58.8186 63.7927 58.7357 63.5118 58.5698C63.2325 58.4022 63.0169 58.1693 62.8648 57.8711C62.7128 57.5711 62.6368 57.2235 62.6368 56.828C62.6368 56.4292 62.7128 56.0807 62.8648 55.7825C63.0169 55.4825 63.2325 55.2496 63.5118 55.0837C63.7927 54.9162 64.1257 54.8324 64.5107 54.8324C64.8957 54.8324 65.2279 54.9162 65.5071 55.0837C65.788 55.2496 66.0045 55.4825 66.1565 55.7825C66.3086 56.0807 66.3846 56.4292 66.3846 56.828C66.3846 57.2235 66.3086 57.5711 66.1565 57.8711C66.0045 58.1693 65.788 58.4022 65.5071 58.5698C65.2279 58.7357 64.8957 58.8186 64.5107 58.8186ZM64.5157 57.9892C64.6908 57.9892 64.8371 57.9389 64.9544 57.8384C65.0717 57.7362 65.1601 57.5971 65.2196 57.4212C65.2807 57.2452 65.3113 57.045 65.3113 56.8205C65.3113 56.596 65.2807 56.3957 65.2196 56.2198C65.1601 56.0438 65.0717 55.9048 64.9544 55.8026C64.8371 55.7004 64.6908 55.6492 64.5157 55.6492C64.3388 55.6492 64.1901 55.7004 64.0695 55.8026C63.9505 55.9048 63.8604 56.0438 63.7993 56.2198C63.7398 56.3957 63.7101 56.596 63.7101 56.8205C63.7101 57.045 63.7398 57.2452 63.7993 57.4212C63.8604 57.5971 63.9505 57.7362 64.0695 57.8384C64.1901 57.9389 64.3388 57.9892 64.5157 57.9892Z" fill="white"/>
<path class="logo_text_path" d="M68.1271 53.5958V58.7432H67.0712V53.5958H68.1271Z" fill="white"/>
<path class="logo_text_path" d="M71.4145 57.0995V54.8827H72.4704V58.7432H71.4566V58.042H71.4169C71.331 58.2682 71.1881 58.45 70.9881 58.5874C70.7898 58.7248 70.5478 58.7935 70.2619 58.7935C70.0074 58.7935 69.7835 58.7348 69.5901 58.6175C69.3968 58.5002 69.2456 58.3335 69.1365 58.1174C69.0291 57.9012 68.9746 57.6424 68.973 57.3407V54.8827H70.0289V57.1497C70.0305 57.3776 70.0908 57.5577 70.2098 57.6901C70.3288 57.8225 70.4883 57.8887 70.6882 57.8887C70.8154 57.8887 70.9344 57.8593 71.0451 57.8007C71.1559 57.7404 71.2451 57.6516 71.3128 57.5343C71.3822 57.417 71.4161 57.272 71.4145 57.0995Z" fill="white"/>
<path class="logo_text_path" d="M75.3401 54.8827V55.6869H73.0473V54.8827H75.3401ZM73.5678 53.9577H74.6237V57.5569C74.6237 57.6558 74.6386 57.7328 74.6684 57.7881C74.6981 57.8417 74.7394 57.8794 74.7923 57.9012C74.8468 57.923 74.9096 57.9339 74.9807 57.9339C75.0303 57.9339 75.0798 57.9297 75.1294 57.9213C75.179 57.9113 75.217 57.9037 75.2434 57.8987L75.4095 58.6955C75.3566 58.7122 75.2822 58.7315 75.1864 58.7533C75.0906 58.7767 74.9741 58.791 74.8369 58.796C74.5824 58.806 74.3594 58.7717 74.1677 58.6929C73.9776 58.6142 73.8297 58.4919 73.724 58.326C73.6182 58.1601 73.5662 57.9507 73.5678 57.6976V53.9577Z" fill="white"/>
<path class="logo_text_path" d="M76.0279 58.7432V54.8827H77.0838V58.7432H76.0279ZM76.5584 54.385C76.4014 54.385 76.2667 54.3322 76.1543 54.2267C76.0436 54.1194 75.9883 53.9913 75.9883 53.8421C75.9883 53.6947 76.0436 53.5682 76.1543 53.4626C76.2667 53.3554 76.4014 53.3018 76.5584 53.3018C76.7153 53.3018 76.8492 53.3554 76.9599 53.4626C77.0723 53.5682 77.1285 53.6947 77.1285 53.8421C77.1285 53.9913 77.0723 54.1194 76.9599 54.2267C76.8492 54.3322 76.7153 54.385 76.5584 54.385Z" fill="white"/>
<path class="logo_text_path" d="M79.6499 58.8186C79.2649 58.8186 78.9319 58.7357 78.651 58.5698C78.3717 58.4022 78.1561 58.1693 78.0041 57.8711C77.852 57.5711 77.776 57.2235 77.776 56.828C77.776 56.4292 77.852 56.0807 78.0041 55.7825C78.1561 55.4825 78.3717 55.2496 78.651 55.0837C78.9319 54.9162 79.2649 54.8324 79.6499 54.8324C80.0349 54.8324 80.3671 54.9162 80.6463 55.0837C80.9273 55.2496 81.1437 55.4825 81.2958 55.7825C81.4478 56.0807 81.5238 56.4292 81.5238 56.828C81.5238 57.2235 81.4478 57.5711 81.2958 57.8711C81.1437 58.1693 80.9273 58.4022 80.6463 58.5698C80.3671 58.7357 80.0349 58.8186 79.6499 58.8186ZM79.6549 57.9892C79.83 57.9892 79.9763 57.9389 80.0936 57.8384C80.2109 57.7362 80.2993 57.5971 80.3588 57.4212C80.42 57.2452 80.4505 57.045 80.4505 56.8205C80.4505 56.596 80.42 56.3957 80.3588 56.2198C80.2993 56.0438 80.2109 55.9048 80.0936 55.8026C79.9763 55.7004 79.83 55.6492 79.6549 55.6492C79.4781 55.6492 79.3293 55.7004 79.2087 55.8026C79.0897 55.9048 78.9997 56.0438 78.9385 56.2198C78.879 56.3957 78.8493 56.596 78.8493 56.8205C78.8493 57.045 78.879 57.2452 78.9385 57.4212C78.9997 57.5971 79.0897 57.7362 79.2087 57.8384C79.3293 57.9389 79.4781 57.9892 79.6549 57.9892Z" fill="white"/>
<path class="logo_text_path" d="M83.2663 56.5113V58.7432H82.2104V54.8827H83.2167V55.5638H83.2614C83.3456 55.3393 83.4869 55.1617 83.6852 55.031C83.8835 54.8986 84.1239 54.8324 84.4065 54.8324C84.6709 54.8324 84.9014 54.891 85.0981 55.0083C85.2947 55.1256 85.4476 55.2932 85.5566 55.511C85.6657 55.7272 85.7202 55.9852 85.7202 56.2851V58.7432H84.6643V56.4761C84.666 56.2399 84.6065 56.0556 84.4858 55.9232C84.3652 55.7892 84.1991 55.7221 83.9876 55.7221C83.8455 55.7221 83.7199 55.7531 83.6109 55.8151C83.5034 55.8771 83.4192 55.9676 83.358 56.0866C83.2985 56.2039 83.268 56.3455 83.2663 56.5113Z" fill="white"/>
<path class="logo_text_path" d="M89.7202 55.9835L88.7535 56.0438C88.737 55.9601 88.7015 55.8847 88.6469 55.8176C88.5924 55.7489 88.5205 55.6945 88.4313 55.6543C88.3437 55.6124 88.2388 55.5914 88.1165 55.5914C87.9529 55.5914 87.8149 55.6266 87.7026 55.697C87.5902 55.7657 87.534 55.8579 87.534 55.9735C87.534 56.0656 87.5704 56.1435 87.6431 56.2072C87.7158 56.2709 87.8405 56.322 88.0173 56.3605L88.7064 56.5013C89.0766 56.5784 89.3525 56.7024 89.5343 56.8733C89.7161 57.0442 89.807 57.2687 89.807 57.5468C89.807 57.7999 89.7334 58.0219 89.5864 58.2129C89.4409 58.4039 89.241 58.553 88.9865 58.6603C88.7337 58.7658 88.442 58.8186 88.1115 58.8186C87.6075 58.8186 87.206 58.7122 86.9069 58.4994C86.6095 58.2849 86.4351 57.9934 86.3839 57.6248L87.4225 57.5695C87.4539 57.7253 87.5299 57.8443 87.6505 57.9264C87.7711 58.0068 87.9256 58.047 88.114 58.047C88.2991 58.047 88.4478 58.011 88.5602 57.9389C88.6742 57.8652 88.732 57.7705 88.7337 57.6549C88.732 57.5577 88.6916 57.4781 88.6122 57.4161C88.5329 57.3525 88.4106 57.3039 88.2454 57.2704L87.5861 57.1372C87.2143 57.0618 86.9375 56.9311 86.7557 56.7451C86.5756 56.5591 86.4855 56.322 86.4855 56.0338C86.4855 55.7858 86.5516 55.5722 86.6838 55.3929C86.8177 55.2136 87.0052 55.0754 87.2465 54.9782C87.4894 54.881 87.7736 54.8324 88.0991 54.8324C88.58 54.8324 88.9584 54.9354 89.2344 55.1415C89.512 55.3476 89.6739 55.6283 89.7202 55.9835Z" fill="white"/>
<path class="logo_text_path" d="M91.6195 58.0395L91.5922 58.3159C91.5708 58.5371 91.5294 58.7575 91.4683 58.977C91.4088 59.1981 91.346 59.3984 91.2799 59.5776C91.2155 59.7569 91.1634 59.8977 91.1238 59.9999H90.4396C90.4644 59.901 90.4983 59.7628 90.5413 59.5852C90.5842 59.4093 90.6247 59.2115 90.6627 58.992C90.7007 58.7725 90.7247 58.5488 90.7346 58.321L90.747 58.0395H91.6195Z" fill="white"/>
<path class="logo_text_path" d="M94.8567 58.7432H93.7066L95.459 53.5958H96.8421L98.5921 58.7432H97.4419L96.1704 54.7721H96.1307L94.8567 58.7432ZM94.7848 56.7199H97.5014V57.5695H94.7848V56.7199Z" fill="white"/>
<path class="logo_text_path" d="M100.819 58.7432V53.5958H102.851C103.225 53.5958 103.536 53.652 103.786 53.7642C104.035 53.8765 104.223 54.0323 104.348 54.2317C104.474 54.4294 104.537 54.6573 104.537 54.9153C104.537 55.1164 104.497 55.2932 104.418 55.4457C104.338 55.5965 104.229 55.7205 104.09 55.8176C103.953 55.9132 103.796 55.981 103.619 56.0212V56.0715C103.813 56.0799 103.994 56.1352 104.162 56.2374C104.333 56.3396 104.47 56.4828 104.576 56.6672C104.682 56.8498 104.735 57.0676 104.735 57.3206C104.735 57.5938 104.668 57.8376 104.534 58.052C104.402 58.2648 104.206 58.4332 103.947 58.5572C103.687 58.6812 103.367 58.7432 102.987 58.7432H100.819ZM101.892 57.8535H102.767C103.066 57.8535 103.284 57.7957 103.421 57.6801C103.558 57.5628 103.627 57.4069 103.627 57.2126C103.627 57.0701 103.593 56.9445 103.525 56.8356C103.458 56.7266 103.361 56.6412 103.235 56.5792C103.111 56.5172 102.963 56.4862 102.792 56.4862H101.892V57.8535ZM101.892 55.7498H102.687C102.835 55.7498 102.965 55.7238 103.079 55.6719C103.195 55.6182 103.286 55.5428 103.352 55.4457C103.42 55.3485 103.453 55.232 103.453 55.0963C103.453 54.9103 103.388 54.7604 103.258 54.6464C103.129 54.5325 102.945 54.4755 102.707 54.4755H101.892V55.7498Z" fill="white"/>
<path class="logo_text_path" d="M107.148 58.8186C106.757 58.8186 106.42 58.7382 106.137 58.5773C105.856 58.4148 105.64 58.1852 105.488 57.8887C105.336 57.5904 105.26 57.2377 105.26 56.8305C105.26 56.4334 105.336 56.0849 105.488 55.785C105.64 55.485 105.854 55.2513 106.13 55.0837C106.407 54.9162 106.733 54.8324 107.106 54.8324C107.358 54.8324 107.591 54.8735 107.808 54.9556C108.026 55.036 108.216 55.1575 108.378 55.32C108.542 55.4825 108.669 55.6869 108.76 55.9333C108.851 56.1779 108.896 56.4644 108.896 56.7928V57.0869H105.681V56.4234H107.902C107.902 56.2692 107.869 56.1327 107.803 56.0137C107.737 55.8947 107.645 55.8017 107.528 55.7347C107.412 55.666 107.277 55.6317 107.124 55.6317C106.963 55.6317 106.821 55.6694 106.697 55.7448C106.575 55.8185 106.479 55.9182 106.41 56.0438C106.34 56.1678 106.305 56.3061 106.303 56.4586V57.0894C106.303 57.2804 106.338 57.4455 106.407 57.5845C106.478 57.7236 106.578 57.8309 106.707 57.9063C106.836 57.9817 106.989 58.0194 107.166 58.0194C107.283 58.0194 107.391 58.0026 107.488 57.9691C107.586 57.9356 107.669 57.8853 107.738 57.8183C107.808 57.7513 107.861 57.6692 107.897 57.572L108.874 57.6373C108.824 57.8753 108.722 58.083 108.569 58.2606C108.417 58.4366 108.22 58.574 107.979 58.6728C107.739 58.77 107.462 58.8186 107.148 58.8186Z" fill="white"/>
<path class="logo_text_path" d="M111.61 54.8827V55.6869H109.317V54.8827H111.61ZM109.838 53.9577H110.894V57.5569C110.894 57.6558 110.909 57.7328 110.938 57.7881C110.968 57.8417 111.009 57.8794 111.062 57.9012C111.117 57.923 111.18 57.9339 111.251 57.9339C111.3 57.9339 111.35 57.9297 111.399 57.9213C111.449 57.9113 111.487 57.9037 111.513 57.8987L111.68 58.6955C111.627 58.7122 111.552 58.7315 111.456 58.7533C111.361 58.7767 111.244 58.791 111.107 58.796C110.852 58.806 110.629 58.7717 110.438 58.6929C110.248 58.6142 110.1 58.4919 109.994 58.326C109.888 58.1601 109.836 57.9507 109.838 57.6976V53.9577Z" fill="white"/>
<path class="logo_text_path" d="M114.323 54.8827V55.6869H112.03V54.8827H114.323ZM112.551 53.9577H113.607V57.5569C113.607 57.6558 113.622 57.7328 113.651 57.7881C113.681 57.8417 113.722 57.8794 113.775 57.9012C113.83 57.923 113.893 57.9339 113.964 57.9339C114.013 57.9339 114.063 57.9297 114.112 57.9213C114.162 57.9113 114.2 57.9037 114.226 57.8987L114.392 58.6955C114.34 58.7122 114.265 58.7315 114.169 58.7533C114.074 58.7767 113.957 58.791 113.82 58.796C113.565 58.806 113.342 58.7717 113.151 58.6929C112.961 58.6142 112.813 58.4919 112.707 58.326C112.601 58.1601 112.549 57.9507 112.551 57.6976V53.9577Z" fill="white"/>
<path class="logo_text_path" d="M116.705 58.8186C116.313 58.8186 115.976 58.7382 115.694 58.5773C115.413 58.4148 115.196 58.1852 115.044 57.8887C114.892 57.5904 114.816 57.2377 114.816 56.8305C114.816 56.4334 114.892 56.0849 115.044 55.785C115.196 55.485 115.41 55.2513 115.686 55.0837C115.964 54.9162 116.289 54.8324 116.663 54.8324C116.914 54.8324 117.148 54.8735 117.364 54.9556C117.583 55.036 117.773 55.1575 117.935 55.32C118.098 55.4825 118.225 55.6869 118.316 55.9333C118.407 56.1779 118.453 56.4644 118.453 56.7928V57.0869H115.238V56.4234H117.459C117.459 56.2692 117.426 56.1327 117.359 56.0137C117.293 55.8947 117.202 55.8017 117.084 55.7347C116.969 55.666 116.834 55.6317 116.68 55.6317C116.52 55.6317 116.378 55.6694 116.254 55.7448C116.132 55.8185 116.036 55.9182 115.966 56.0438C115.897 56.1678 115.862 56.3061 115.86 56.4586V57.0894C115.86 57.2804 115.895 57.4455 115.964 57.5845C116.035 57.7236 116.135 57.8309 116.264 57.9063C116.393 57.9817 116.546 58.0194 116.722 58.0194C116.84 58.0194 116.947 58.0026 117.045 57.9691C117.142 57.9356 117.226 57.8853 117.295 57.8183C117.364 57.7513 117.417 57.6692 117.454 57.572L118.43 57.6373C118.381 57.8753 118.279 58.083 118.125 58.2606C117.973 58.4366 117.777 58.574 117.535 58.6728C117.296 58.77 117.019 58.8186 116.705 58.8186Z" fill="white"/>
<path class="logo_text_path" d="M119.142 58.7432V54.8827H120.165V55.5563H120.205C120.274 55.3166 120.391 55.1357 120.554 55.0134C120.718 54.8894 120.906 54.8274 121.12 54.8274C121.173 54.8274 121.23 54.8307 121.291 54.8374C121.352 54.8441 121.406 54.8533 121.452 54.8651V55.8151C121.402 55.8 121.334 55.7866 121.246 55.7749C121.158 55.7632 121.078 55.7573 121.006 55.7573C120.85 55.7573 120.711 55.7917 120.589 55.8604C120.469 55.9274 120.373 56.0212 120.302 56.1419C120.232 56.2625 120.198 56.4016 120.198 56.5591V58.7432H119.142Z" fill="white"/>
<path class="logo_text_path" d="M123.633 58.7432V53.5958H126.994V54.4931H124.706V55.7196H126.771V56.6169H124.706V58.7432H123.633Z" fill="white"/>
<path class="logo_text_path" d="M129.899 57.0995V54.8827H130.955V58.7432H129.941V58.042H129.902C129.816 58.2682 129.673 58.45 129.473 58.5874C129.275 58.7248 129.032 58.7935 128.747 58.7935C128.492 58.7935 128.268 58.7348 128.075 58.6175C127.882 58.5002 127.73 58.3335 127.621 58.1174C127.514 57.9012 127.459 57.6424 127.458 57.3407V54.8827H128.514V57.1497C128.515 57.3776 128.576 57.5577 128.695 57.6901C128.813 57.8225 128.973 57.8887 129.173 57.8887C129.3 57.8887 129.419 57.8593 129.53 57.8007C129.641 57.7404 129.73 57.6516 129.798 57.5343C129.867 57.417 129.901 57.272 129.899 57.0995Z" fill="white"/>
<path class="logo_text_path" d="M133.825 54.8827V55.6869H131.532V54.8827H133.825ZM132.053 53.9577H133.108V57.5569C133.108 57.6558 133.123 57.7328 133.153 57.7881C133.183 57.8417 133.224 57.8794 133.277 57.9012C133.332 57.923 133.394 57.9339 133.465 57.9339C133.515 57.9339 133.565 57.9297 133.614 57.9213C133.664 57.9113 133.702 57.9037 133.728 57.8987L133.894 58.6955C133.841 58.7122 133.767 58.7315 133.671 58.7533C133.575 58.7767 133.459 58.791 133.322 58.796C133.067 58.806 132.844 58.7717 132.652 58.6929C132.462 58.6142 132.314 58.4919 132.209 58.326C132.103 58.1601 132.051 57.9507 132.053 57.6976V53.9577Z" fill="white"/>
<path class="logo_text_path" d="M136.954 57.0995V54.8827H138.01V58.7432H136.996V58.042H136.957C136.871 58.2682 136.728 58.45 136.528 58.5874C136.329 58.7248 136.087 58.7935 135.802 58.7935C135.547 58.7935 135.323 58.7348 135.13 58.6175C134.936 58.5002 134.785 58.3335 134.676 58.1174C134.569 57.9012 134.514 57.6424 134.513 57.3407V54.8827H135.569V57.1497C135.57 57.3776 135.631 57.5577 135.749 57.6901C135.868 57.8225 136.028 57.8887 136.228 57.8887C136.355 57.8887 136.474 57.8593 136.585 57.8007C136.696 57.7404 136.785 57.6516 136.852 57.5343C136.922 57.417 136.956 57.272 136.954 57.0995Z" fill="white"/>
<path class="logo_text_path" d="M138.855 58.7432V54.8827H139.878V55.5563H139.918C139.987 55.3166 140.104 55.1357 140.268 55.0134C140.431 54.8894 140.619 54.8274 140.833 54.8274C140.886 54.8274 140.943 54.8307 141.004 54.8374C141.065 54.8441 141.119 54.8533 141.165 54.8651V55.8151C141.115 55.8 141.047 55.7866 140.959 55.7749C140.871 55.7632 140.791 55.7573 140.719 55.7573C140.563 55.7573 140.424 55.7917 140.302 55.8604C140.182 55.9274 140.086 56.0212 140.015 56.1419C139.945 56.2625 139.911 56.4016 139.911 56.5591V58.7432H138.855Z" fill="white"/>
<path class="logo_text_path" d="M143.269 58.8186C142.877 58.8186 142.54 58.7382 142.257 58.5773C141.976 58.4148 141.76 58.1852 141.608 57.8887C141.456 57.5904 141.38 57.2377 141.38 56.8305C141.38 56.4334 141.456 56.0849 141.608 55.785C141.76 55.485 141.974 55.2513 142.25 55.0837C142.527 54.9162 142.853 54.8324 143.226 54.8324C143.478 54.8324 143.711 54.8735 143.928 54.9556C144.146 55.036 144.336 55.1575 144.498 55.32C144.662 55.4825 144.789 55.6869 144.88 55.9333C144.971 56.1779 145.016 56.4644 145.016 56.7928V57.0869H141.801V56.4234H144.022C144.022 56.2692 143.989 56.1327 143.923 56.0137C143.857 55.8947 143.765 55.8017 143.648 55.7347C143.532 55.666 143.397 55.6317 143.244 55.6317C143.083 55.6317 142.941 55.6694 142.817 55.7448C142.695 55.8185 142.599 55.9182 142.53 56.0438C142.461 56.1678 142.425 56.3061 142.423 56.4586V57.0894C142.423 57.2804 142.458 57.4455 142.527 57.5845C142.599 57.7236 142.698 57.8309 142.827 57.9063C142.956 57.9817 143.109 58.0194 143.286 58.0194C143.403 58.0194 143.511 58.0026 143.608 57.9691C143.706 57.9356 143.789 57.8853 143.859 57.8183C143.928 57.7513 143.981 57.6692 144.017 57.572L144.994 57.6373C144.944 57.8753 144.843 58.083 144.689 58.2606C144.537 58.4366 144.34 58.574 144.099 58.6728C143.859 58.77 143.583 58.8186 143.269 58.8186Z" fill="white"/>
<path fill-rule="evenodd" clip-rule="evenodd" d="M0 3.39727C0 1.49996 1.47926 0 3.3504 0H125.221C138.888 0 150 11.2671 150 25.1257V38.1486C150 44.7959 144.674 50.1098 138.204 50.1098H11.7962C5.24057 50.1098 0 44.7091 0 38.1486V3.39727ZM3.49 3.53883V38.1486C3.49 42.7707 7.18381 46.571 11.7962 46.571H138.204C142.762 46.571 146.51 42.8255 146.51 38.1486V25.1257C146.51 13.2216 136.961 3.53883 125.221 3.53883H3.49Z" fill="#81C216"/>
<path d="M21.5684 38.7148C19.614 38.7148 17.9389 38.2901 16.4731 37.4408C15.0771 36.5915 13.9603 35.3883 13.1925 33.8312C12.4247 32.2741 12.0059 30.4339 12.0059 28.3106C12.0059 26.2581 12.4247 24.4179 13.1925 22.79C13.9603 21.2329 15.0073 19.959 16.4033 19.1096C17.7993 18.1896 19.4046 17.7649 21.2892 17.7649C22.406 17.7649 23.5228 17.9772 24.5698 18.3311C25.6168 18.685 26.594 19.322 27.4316 20.1005C28.2692 20.8791 28.9672 21.9407 29.4558 23.2147C29.9444 24.4887 30.1538 26.0457 30.1538 27.8859V29.3015L14.2395 31.1417V28.3106L26.3148 26.4704C26.3148 25.4088 26.1054 24.4887 25.6866 23.7101C25.2678 22.9316 24.7094 22.2946 23.9416 21.7992C23.1738 21.3037 22.3362 21.0914 21.2892 21.0914C20.1724 21.0914 19.265 21.3745 18.4275 21.8699C17.5899 22.4361 16.9617 23.1439 16.5429 23.9932C16.1241 24.8425 15.9147 25.8334 15.9147 26.8243V29.1599C15.9147 30.5047 16.1241 31.6371 16.6127 32.628C17.1013 33.5481 17.7295 34.3266 18.5671 34.822C19.4046 35.3175 20.3818 35.6006 21.5684 35.6006C22.3362 35.6006 22.9644 35.459 23.5926 35.2467C24.2208 35.0344 24.7094 34.6805 25.198 34.2558C25.6168 33.8312 25.9658 33.265 26.245 32.628L29.9444 33.3357C29.6652 34.4682 29.1068 35.3883 28.339 36.2376C27.5712 37.0869 26.6638 37.7239 25.4772 38.1485C24.2906 38.5024 22.9644 38.7148 21.5684 38.7148Z" fill="#81C216"/>
<path d="M36.8551 26.3289V38.3609H32.9463V18.048H36.7155V21.3745H36.9947C37.4833 20.3128 38.1813 19.4635 39.1585 18.7558C40.1357 18.1188 41.3921 17.7649 42.8579 17.7649C44.2539 17.7649 45.4405 18.048 46.4177 18.6142C47.4647 19.1804 48.2325 20.0297 48.7909 21.1622C49.3493 22.2946 49.6285 23.7101 49.6285 25.338V38.2193H45.7197V25.9042C45.7197 24.4179 45.3707 23.2855 44.6029 22.4361C43.8351 21.5868 42.7881 21.1622 41.4619 21.1622C40.5545 21.1622 39.7867 21.3745 39.0887 21.7284C38.3907 22.153 37.8323 22.7193 37.4135 23.4978C37.0645 24.2763 36.8551 25.1964 36.8551 26.3289Z" fill="#81C216"/>
<path d="M59.2608 38.7855C58.0044 38.7855 56.8178 38.5732 55.8406 38.0778C54.7936 37.5823 54.0258 36.8746 53.3976 35.9545C52.7694 35.0344 52.4902 33.9019 52.4902 32.5572C52.4902 31.4248 52.6996 30.5047 53.1184 29.7261C53.5372 29.0184 54.1654 28.3814 54.8634 27.9567C55.6312 27.5321 56.399 27.1782 57.3064 26.9658C58.2138 26.7535 59.1212 26.612 60.0984 26.4704C61.285 26.3289 62.2622 26.1873 63.03 26.1165C63.7978 26.0457 64.2864 25.9042 64.6354 25.6919C64.9844 25.4795 65.124 25.1257 65.124 24.6302V24.5594C65.124 23.427 64.775 22.5069 64.1468 21.8699C63.5186 21.2329 62.5414 20.9498 61.285 20.9498C59.9588 20.9498 58.9118 21.2329 58.2138 21.7992C57.446 22.3654 56.9574 23.0024 56.6782 23.7809L53.0486 22.9316C53.4674 21.7284 54.0956 20.7375 54.9332 19.959C55.7708 19.1804 56.748 18.6142 57.795 18.2603C58.9118 17.9064 60.0286 17.7649 61.2152 17.7649C61.983 17.7649 62.8904 17.8357 63.728 18.048C64.6354 18.2603 65.473 18.6142 66.2408 19.1096C67.0086 19.6051 67.6368 20.3128 68.1952 21.2329C68.6838 22.153 68.963 23.3562 68.963 24.8425V38.2901H65.1938V35.5298H65.0542C64.775 36.0252 64.426 36.5207 63.9374 37.0161C63.4488 37.5115 62.8206 37.9362 61.983 38.2193C61.285 38.644 60.3078 38.7855 59.2608 38.7855ZM60.0984 35.6006C61.1454 35.6006 62.1226 35.3883 62.8904 34.9636C63.6582 34.5389 64.2166 33.9727 64.6354 33.265C65.0542 32.5572 65.2636 31.8494 65.2636 31.0001V28.3814C65.124 28.5229 64.8448 28.6645 64.4958 28.806C64.077 28.9476 63.6582 29.0184 63.1696 29.0891C62.681 29.1599 62.1924 29.2307 61.7038 29.3015C61.2152 29.3722 60.7964 29.443 60.5172 29.443C59.7494 29.5138 59.0514 29.7261 58.4232 29.9385C57.795 30.1508 57.3064 30.5047 56.9574 30.9293C56.6084 31.354 56.399 31.9202 56.399 32.628C56.399 33.6188 56.748 34.3266 57.446 34.822C58.0742 35.3883 58.9816 35.6006 60.0984 35.6006Z" fill="#81C216"/>
<path d="M72.3828 38.3609V11.3242H76.2916V21.3745H76.501C76.7104 20.9498 77.0594 20.4544 77.4782 19.8882C77.897 19.322 78.5252 18.8265 79.2232 18.4019C79.991 17.9772 80.9682 17.7649 82.2246 17.7649C83.83 17.7649 85.2958 18.1895 86.5522 19.0389C87.8086 19.8882 88.7858 21.0914 89.5536 22.6485C90.2516 24.2055 90.6704 26.0457 90.6704 28.2398C90.6704 30.4339 90.3214 32.2741 89.6234 33.9019C88.9254 35.459 87.9482 36.6622 86.622 37.5115C85.3656 38.3609 83.8998 38.7855 82.2944 38.7855C81.1078 38.7855 80.0608 38.5732 79.293 38.1485C78.5252 37.7239 77.897 37.2284 77.4782 36.6622C77.0594 36.096 76.7104 35.6006 76.501 35.1759H76.152V38.3609H72.3828ZM76.2218 28.169C76.2218 29.5846 76.4312 30.8585 76.85 31.9202C77.2688 32.9818 77.8272 33.8312 78.595 34.4681C79.3628 35.1051 80.34 35.3882 81.4568 35.3882C82.6434 35.3882 83.6206 35.1051 84.3884 34.4681C85.1562 33.8312 85.7844 32.9818 86.1334 31.9202C86.5522 30.8585 86.7616 29.5846 86.7616 28.2398C86.7616 26.8951 86.5522 25.6919 86.2032 24.6302C85.7844 23.5686 85.226 22.7192 84.4582 22.0823C83.6904 21.4453 82.7132 21.1622 81.5266 21.1622C80.4098 21.1622 79.4326 21.4453 78.6648 22.0823C77.897 22.6485 77.2688 23.4978 76.9198 24.5594C76.4312 25.5503 76.2218 26.8243 76.2218 28.169Z" fill="#81C216"/>
<path d="M97.441 11.3242V38.3609H93.5322V11.3242H97.441Z" fill="#81C216"/>
<path d="M109.796 38.7148C107.842 38.7148 106.166 38.2901 104.701 37.4408C103.305 36.5915 102.188 35.3883 101.42 33.8312C100.652 32.2741 100.233 30.4339 100.233 28.3106C100.233 26.2581 100.652 24.4179 101.42 22.79C102.188 21.2329 103.235 19.959 104.631 19.1096C106.027 18.1896 107.632 17.7649 109.517 17.7649C110.634 17.7649 111.75 17.9772 112.797 18.3311C113.844 18.685 114.822 19.322 115.659 20.1005C116.497 20.8791 117.195 21.9407 117.683 23.2147C118.172 24.4887 118.381 26.0457 118.381 27.8859V29.3015L102.467 31.1417V28.3106L114.542 26.4704C114.542 25.4088 114.333 24.4887 113.914 23.7101C113.495 22.9316 112.937 22.2946 112.169 21.7992C111.401 21.3037 110.564 21.0914 109.517 21.0914C108.4 21.0914 107.493 21.3745 106.655 21.8699C105.817 22.4361 105.189 23.1439 104.77 23.9932C104.352 24.8425 104.142 25.8334 104.142 26.8243V29.1599C104.142 30.5047 104.352 31.6371 104.84 32.628C105.329 33.5481 105.957 34.3266 106.795 34.822C107.632 35.3175 108.609 35.6006 109.796 35.6006C110.564 35.6006 111.192 35.459 111.82 35.2467C112.448 35.0344 112.937 34.6805 113.426 34.2558C113.844 33.8312 114.193 33.265 114.473 32.628L118.172 33.3357C117.893 34.4682 117.334 35.3883 116.567 36.2376C115.799 37.0869 114.891 37.7239 113.705 38.1485C112.588 38.5024 111.262 38.7148 109.796 38.7148Z" fill="#81C216"/>
<path d="M125.151 26.3289V38.3609H121.242V18.048H125.011V21.3745H125.291C125.779 20.3128 126.477 19.4635 127.454 18.7558C128.432 18.1188 129.688 17.7649 131.154 17.7649C132.55 17.7649 133.736 18.048 134.714 18.6142C135.691 19.1804 136.528 20.0297 137.087 21.1622C137.645 22.2946 137.924 23.7101 137.924 25.338V38.2193H134.016V25.9042C134.016 24.4179 133.667 23.2855 132.899 22.4361C132.131 21.5868 131.084 21.1622 129.758 21.1622C128.85 21.1622 128.083 21.3745 127.385 21.7284C126.687 22.153 126.128 22.7193 125.709 23.4978C125.36 24.2763 125.151 25.1964 125.151 26.3289Z" fill="#81C216"/>
</svg>
