<svg width="21" height="16" viewBox="0 0 21 16" fill="none" xmlns="http://www.w3.org/2000/svg">
<path opacity="0.3" d="M1.69865 2.292C-0.18835 4.34 0.00164874 6.97 0.00764925 7L0.00764856 15C0.00764853 15.2652 0.113005 15.5196 0.300541 15.7071C0.488077 15.8946 0.742432 16 1.00765 16L7.00765 16C8.11065 16 9.00765 15.103 9.00765 14L9.00765 7C9.00765 6.73478 8.90229 6.48043 8.71476 6.29289C8.52722 6.10536 8.27287 6 8.00765 6L4.92965 6C4.95078 5.50561 5.09849 5.02493 5.35865 4.604C5.86665 3.803 6.82365 3.256 8.20465 2.98L9.00765 2.82L9.00765 -9.62263e-07L8.00765 -1.04969e-06C5.22465 -1.29298e-06 3.10165 0.770998 1.69865 2.292ZM12.7056 2.292C10.8176 4.34 11.0086 6.97 11.0146 7L11.0146 15C11.0146 15.2652 11.12 15.5196 11.3075 15.7071C11.4951 15.8946 11.7494 16 12.0146 16L18.0146 16C19.1176 16 20.0146 15.103 20.0146 14L20.0146 7C20.0146 6.73478 19.9093 6.48043 19.7218 6.29289C19.5342 6.10536 19.2799 6 19.0146 6L15.9366 6C15.9578 5.50561 16.1055 5.02493 16.3656 4.604C16.8736 3.803 17.8306 3.256 19.2116 2.98L20.0146 2.82L20.0146 0L19.0146 -8.74228e-08C16.2316 -3.3072e-07 14.1086 0.770999 12.7056 2.292Z" fill="#81C216"/>
</svg>
